<svg xmlns="http://www.w3.org/2000/svg" viewBox="-1800 3589 277.932 58.2"><defs><style>.a{fill:#ffd400;}.b{fill:red;}.c{fill:#7d7189;}.d{fill:#c29b20;}.e{fill:#fff;}</style></defs><g transform="translate(-1795.01 3589)"><g transform="translate(-5)"><rect class="a" width="1.9" height="54.9" transform="translate(21.6)"/><path class="a" d="M1830.71-1133.9h-5a1.114,1.114,0,0,1-1.1-1.1v-4h-11v4a1.114,1.114,0,0,1-1.1,1.1h-5a1.114,1.114,0,0,1-1.1-1.1v-4.165a4.917,4.917,0,0,1-3.7-4.835v-11.2H1800.6c-.319,0-.589-.5-.589-1.1v-5.7c0-.6.27-1.1.589-1.1h2.111v-5.9a4.946,4.946,0,0,1,5-5h22.2a4.946,4.946,0,0,1,5,5v5.9h2.28c.337,0,.621.5.621,1.1v5.7c0,.6-.284,1.1-.621,1.1h-2.28v11.2a5.1,5.1,0,0,1-3.1,4.606V-1135A1.114,1.114,0,0,1,1830.71-1133.9Zm-1.4-13.2a2.5,2.5,0,0,0-2.5,2.5,2.5,2.5,0,0,0,2.5,2.5,2.5,2.5,0,0,0,2.5-2.5A2.5,2.5,0,0,0,1829.309-1147.1Zm-20.7,0a2.5,2.5,0,0,0-2.5,2.5,2.5,2.5,0,0,0,2.5,2.5,2.5,2.5,0,0,0,2.5-2.5A2.5,2.5,0,0,0,1808.609-1147.1Zm-2.5-18.8v16.1h25.8v-16.1Z" transform="translate(-1773.21 1192.1)"/><path class="b" d="M54,2.4a3.757,3.757,0,0,0-3.7,3.7c0,2,3.7,8.5,3.7,8.5s3.7-6.5,3.7-8.5A3.757,3.757,0,0,0,54,2.4Zm0,5.5A1.9,1.9,0,0,1,52.1,6,1.839,1.839,0,0,1,54,4.1a1.9,1.9,0,1,1,0,3.8Z"/><path class="b" d="M16.6,41.4a3.757,3.757,0,0,0-3.7,3.7c0,2,3.7,8.5,3.7,8.5s3.7-6.5,3.7-8.5A3.63,3.63,0,0,0,16.6,41.4Zm0,5.5a1.9,1.9,0,0,1,0-3.8A1.839,1.839,0,0,1,18.5,45,1.9,1.9,0,0,1,16.6,46.9Z"/><rect class="a" width="1.9" height="70.8" transform="translate(70.81 13.915) rotate(90)"/><rect class="c" width="1.9" height="7.8" transform="translate(23.549 52.975) rotate(90)"/><rect class="d" width="1.9" height="49.2" transform="translate(70.822 13.903) rotate(90)"/><rect class="d" width="1.9" height="41" transform="translate(23.525 54.874) rotate(180)"/></g><g transform="translate(-5 6.133)"><path class="e" d="M88,29.507H81.6V28.3H95.84v1.207h-6.4V48.453H88Z" transform="translate(0 0.331)"/><path class="e" d="M95.1,32.862h1.207l.121,2.776h.121c.965-1.81,2.414-3.138,4.1-3.138a2.866,2.866,0,0,1,1.448.362l-.362,1.207a2.387,2.387,0,0,0-1.327-.241c-1.327,0-2.9.965-3.982,3.741V47.585H95.1V32.862Z" transform="translate(2.791 1.199)"/><path class="e" d="M111.313,38.313c.121-2.172-.6-4.706-3.5-4.706a8.382,8.382,0,0,0-4.706,1.689l-.6-.965a9.875,9.875,0,0,1,5.43-1.931c3.5,0,4.706,2.534,4.706,5.672v9.533h-1.086l-.121-1.931h-.121a8.5,8.5,0,0,1-5.189,2.293c-2.293,0-4.224-1.207-4.224-3.982C101.9,40.606,104.8,39.158,111.313,38.313Zm-4.948,8.447c1.689,0,3.138-.845,4.948-2.414V39.4c-6.034.724-8.085,2.052-8.085,4.465C103.227,45.916,104.676,46.761,106.365,46.761Z" transform="translate(4.197 1.179)"/><path class="e" d="M120.858,32.5a5.834,5.834,0,0,1,4.344,1.81l-.845.965a5.243,5.243,0,0,0-3.5-1.569c-3.017,0-5.31,2.655-5.31,6.517s2.051,6.517,5.31,6.517a5.465,5.465,0,0,0,3.862-1.689l.724.965a6.972,6.972,0,0,1-4.706,1.931c-3.741,0-6.637-2.776-6.637-7.723C114.221,35.276,117.358,32.5,120.858,32.5Z" transform="translate(6.72 1.199)"/><path class="e" d="M126.6,26.7h1.327V42.871h.121l7.241-8.93h1.569l-4.827,5.792,5.551,8.809h-1.448L131.306,40.7l-3.258,3.862v4.224h-1.327V26.7Z" transform="translate(9.305)"/><path class="e" d="M137.945,44.874a7.886,7.886,0,0,0,5.913,2.776c3.017,0,5.068-1.689,5.068-3.982,0-2.534-1.689-3.379-3.62-4.224l-3.017-1.327c-1.689-.724-4.1-2.052-4.1-5.068,0-2.9,2.534-4.948,5.792-4.948a7.759,7.759,0,0,1,5.672,2.414l-.845.965a6.622,6.622,0,0,0-4.827-2.052c-2.655,0-4.465,1.448-4.465,3.62,0,2.293,2.051,3.258,3.5,3.862l3.017,1.327c2.293.965,4.224,2.293,4.224,5.31,0,3.138-2.534,5.43-6.4,5.43A8.715,8.715,0,0,1,137.1,45.96Z" transform="translate(11.476 0.289)"/><path class="e" d="M157.058,32.5a5.834,5.834,0,0,1,4.344,1.81l-.845.965a5.243,5.243,0,0,0-3.5-1.569c-3.017,0-5.31,2.655-5.31,6.517s2.052,6.517,5.31,6.517a5.465,5.465,0,0,0,3.862-1.689l.724.965a6.972,6.972,0,0,1-4.706,1.931c-3.741,0-6.637-2.776-6.637-7.723C150.421,35.276,153.558,32.5,157.058,32.5Z" transform="translate(14.205 1.199)"/><path class="e" d="M162.8,26.7h1.327v9.654c1.569-1.569,3.017-2.655,5.068-2.655,3.017,0,4.465,1.81,4.465,5.672v9.413h-1.327V39.492c0-3.138-.965-4.586-3.379-4.586-1.689,0-3.017.965-4.827,2.776v11.1H162.8V26.7Z" transform="translate(16.79)"/><path class="e" d="M181.717,32.5c3.5,0,6.637,2.776,6.637,7.723,0,4.827-3.017,7.723-6.637,7.723-3.5,0-6.517-2.776-6.517-7.723C175.08,35.276,178.217,32.5,181.717,32.5Zm0,14.24c3.017,0,5.189-2.655,5.189-6.517s-2.293-6.517-5.189-6.517c-3.017,0-5.189,2.655-5.189,6.517S178.7,46.74,181.717,46.74Z" transform="translate(19.353 1.199)"/><path class="e" d="M195.217,32.5c3.5,0,6.637,2.776,6.637,7.723,0,4.827-3.017,7.723-6.637,7.723-3.5,0-6.517-2.776-6.517-7.723S191.717,32.5,195.217,32.5Zm0,14.24c3.017,0,5.189-2.655,5.189-6.517s-2.293-6.517-5.189-6.517c-3.017,0-5.189,2.655-5.189,6.517C190.148,44.085,192.32,46.74,195.217,46.74Z" transform="translate(22.145 1.199)"/><path class="e" d="M203.3,26.7h1.327V46.974c0,.6.241.965.6.965a1.615,1.615,0,0,0,.6-.121l.241,1.086a2.353,2.353,0,0,1-.965.121c-1.207,0-1.81-.724-1.81-2.293Z" transform="translate(25.164)"/><path class="e" d="M209.3,28.3h5.43c3.982,0,6.637,1.569,6.637,4.948a4.559,4.559,0,0,1-3.62,4.465v.121c3.017.483,4.827,2.052,4.827,4.827,0,3.862-2.9,5.913-7.482,5.913H209.3Zm4.827,8.809c4.1,0,5.792-1.327,5.792-3.982s-1.931-3.741-5.672-3.741h-3.62v7.723Zm.724,10.137c3.982,0,6.4-1.448,6.4-4.706,0-2.9-2.414-4.224-6.4-4.224h-4.1v8.93Z" transform="translate(26.404 0.331)"/><path class="e" d="M223.6,32.8h1.327v9.292c0,3.138.965,4.586,3.379,4.586,1.689,0,3.017-.965,4.706-3.017V32.8h1.327V47.523h-1.086l-.121-2.414h0c-1.448,1.689-3.017,2.776-4.948,2.776-3.017,0-4.465-1.81-4.465-5.672V32.8Z" transform="translate(29.361 1.261)"/><path class="e" d="M236.424,44.93a6.453,6.453,0,0,0,4.706,1.81c2.293,0,3.5-1.327,3.5-2.9,0-1.81-1.931-2.655-3.62-3.258-2.172-.845-4.706-1.689-4.706-4.224,0-2.172,1.689-3.862,4.706-3.862a6.505,6.505,0,0,1,4.224,1.569l-.724.965a5.657,5.657,0,0,0-3.5-1.327c-2.293,0-3.258,1.327-3.258,2.655,0,1.569,1.689,2.293,3.5,3.017,2.293.845,4.827,1.569,4.827,4.465,0,2.172-1.81,4.1-4.948,4.1A8.769,8.769,0,0,1,235.7,45.9Z" transform="translate(31.863 1.199)"/></g></g></svg>