<svg xmlns="http://www.w3.org/2000/svg" viewBox="0 0 574.31 155.94"><defs><style>.cls-1{fill:#fff;}</style></defs><title>WMSB-logo-white</title><g id="Layer_2" data-name="Layer 2"><g id="Layer_1-2" data-name="Layer 1"><path class="cls-1" d="M85.26,42.38,90,21.72c.65-3,1.24-6,1.78-9H92c.5,3,1.08,6,1.73,9l4.87,20.66h8.61l7.54-39.24h-6.67L104.7,23c-.64,4.1-1.26,8.31-1.9,12.52h-.24C101.7,31.28,100.84,27,100,23L95.15,3.14H89.1L84.28,23c-.87,4.14-1.73,8.35-2.55,12.52h-.24c-.63-4.17-1.31-8.35-1.94-12.52L76.14,3.14H69l7.8,39.24Z"/><path class="cls-1" d="M136.52,39.12l.53,3.26h5.67V24.93c0-8.2-3.63-12.74-11-12.74a23,23,0,0,0-12.09,3.86l2.54,4.61c2.59-1.58,5.35-2.9,8.28-2.9,4,0,5.26,2.64,5.35,5.81-12.09,1.29-17.32,4.58-17.32,10.89,0,5.14,3.55,8.64,8.71,8.64,3.48,0,6.5-1.73,9.14-4Zm-.72-4.63c-2.18,2-4,3.19-6.4,3.19s-4.25-1.14-4.25-3.75c0-3,2.66-5.06,10.65-6.07Z"/><path class="cls-1" d="M151.69,32.45c0,6.36,2.52,10.65,9.31,10.65A19.08,19.08,0,0,0,167,42l-1.18-5.09a9.11,9.11,0,0,1-3.07.68c-2.83,0-4.18-1.71-4.18-5.18v-14h7.52v-5.5H158.6v-8h-5.73l-.82,8-4.56.31v5.19h4.2Z"/><path class="cls-1" d="M184.93,37.46c-4.58,0-7.82-3.89-7.82-9.79s3.29-9.84,8-9.84A7.2,7.2,0,0,1,190,20l3.36-4.49a12.59,12.59,0,0,0-8.61-3.31c-7.85,0-14.79,5.66-14.79,15.48s6.17,15.43,14.21,15.43a14.55,14.55,0,0,0,9.63-3.62L191,34.92A9.72,9.72,0,0,1,184.93,37.46Z"/><path class="cls-1" d="M207.16,21.79c2.42-2.4,4.12-3.67,6.72-3.67,3.19,0,4.58,1.82,4.58,6.67V42.38h6.91V23.9c0-7.44-2.76-11.71-9.07-11.71-4,0-7,2.14-9.43,4.47l.29-5.69V0h-6.92V42.38h6.92Z"/><path class="cls-1" d="M256.26,21.07l6.48,17.63h4.13l6.45-17.63L276.49,12h.24c-.34,3.64-.89,8.86-.89,12.48v18h6.39V3.14h-7.88l-6.79,19.18c-.86,2.49-1.61,5.13-2.47,7.7h-.24c-.86-2.57-1.65-5.21-2.52-7.7L255.4,3.14h-7.88V42.38h6.27v-18c0-3.62-.55-8.84-.89-12.48h.24Z"/><path class="cls-1" d="M299.58,43.87c-1,3-2.78,5.06-5.88,5.06a8.41,8.41,0,0,1-2.11-.4l-1.27,5.35a11.5,11.5,0,0,0,3.84.6c6.43,0,9.52-4.12,12-10.75l10.66-30.82h-6.67l-4.4,14.45c-.76,2.69-1.51,5.59-2.25,8.33h-.24c-.87-2.81-1.71-5.72-2.59-8.33l-5.09-14.45h-7L300.13,42Z"/><path class="cls-1" d="M44,107.74,32.5,102.93C25.46,100,19,97.57,19,90.89c0-6.22,5.25-10,13.31-10,7.28,0,13.06,2.71,18.46,7.31l7.75-9.57A37.26,37.26,0,0,0,32.29,67.8c-16.59,0-28.55,10.42-28.55,24,0,12.43,8.82,19.06,17.19,22.54l11.62,5c7.73,3.27,13.21,5.51,13.21,12.51,0,6.63-5.25,11-14.82,11-7.9,0-16.07-3.9-22.15-9.7L0,143.49a43.81,43.81,0,0,0,30.63,12.45c19.08,0,30.52-11.49,30.52-25.27C61.15,118.34,54.08,112,44,107.74Z"/><path class="cls-1" d="M100.23,143.72c-9.93,0-17-8.42-17-21.22s7.12-21.32,17.42-21.32c4,0,7.23,1.72,10.61,4.68l7.28-9.72A27.3,27.3,0,0,0,99.92,89c-17,0-32,12.28-32,33.54s13.36,33.44,30.78,33.44a31.54,31.54,0,0,0,20.85-7.85l-6.08-9.88C109.8,141.28,105.22,143.72,100.23,143.72Z"/><path class="cls-1" d="M163.64,89c-8.73,0-15.08,4.63-20.43,9.68l.62-12.33V62.55h-15v91.83h15V109.76c5.25-5.2,8.95-8,14.56-8,6.92,0,9.93,4,9.93,14.45v38.12h15v-40C183.3,98.22,177.32,89,163.64,89Z"/><path class="cls-1" d="M224.3,89c-15.91,0-30.37,12.28-30.37,33.54s14.46,33.44,30.37,33.44,30.37-12.27,30.37-33.44S240.21,89,224.3,89Zm0,54.76c-9.36,0-15-8.42-15-21.22s5.61-21.32,15-21.32,15,8.53,15,21.32S233.66,143.72,224.3,143.72Z"/><path class="cls-1" d="M292.4,89C276.48,89,262,101.24,262,122.5s14.45,33.44,30.37,33.44,30.37-12.27,30.37-33.44S308.31,89,292.4,89Zm0,54.76c-9.36,0-15-8.42-15-21.22s5.62-21.32,15-21.32,15,8.53,15,21.32S301.76,143.72,292.4,143.72Z"/><path class="cls-1" d="M351.75,143.72c-1.56,0-3.22-1.3-3.22-5V62.55h-15V138c0,11.13,3.9,18,14.51,18a21,21,0,0,0,7.91-1.3l-1.88-11.18A8.73,8.73,0,0,1,351.75,143.72Z"/><path class="cls-1" d="M435.27,109.24v-.52c7.43-2.6,11.8-10.4,11.8-18.4,0-15.61-12.84-21-30.32-21H389.56v85h29.38c18.72,0,32.65-7.95,32.65-25C451.59,117.93,444.68,111.38,435.27,109.24ZM404.64,81.11h11.07c11,0,16.59,3.12,16.59,11.34,0,7.38-5,12-16.9,12H404.64Zm12.74,61.52H404.64V115.74h12.74c12.69,0,19.45,3.9,19.45,12.85C436.83,138.16,429.86,142.63,417.38,142.63Z"/><path class="cls-1" d="M500.91,134.26c-4.83,6.24-8.52,8.84-14.14,8.84-6.92,0-9.93-3.95-9.93-14.46V90.52h-15v40c0,16.13,6,25.38,19.66,25.38,8.73,0,14.92-4.31,20.54-11h.41l1.15,9.41h12.27V90.52h-15Z"/><path class="cls-1" d="M556,116.84c-6.92-2.55-13.37-4.48-13.37-9.52,0-4,3-7.07,9.47-7.07,5,0,9.51,2.29,14,5.56l6.87-9.2A34.42,34.42,0,0,0,551.74,89c-14.3,0-23.24,8-23.24,19.09,0,10.66,9.57,15.47,17.94,18.62,6.81,2.59,13.73,5,13.73,10.34,0,4.37-3.28,7.65-10.25,7.65-6.47,0-12-2.71-17.63-7.13l-7,9.52a39.9,39.9,0,0,0,24.18,8.89c16.12,0,24.8-8.84,24.8-19.81C574.31,124.22,564.64,120.06,556,116.84Z"/></g></g></svg>