<svg xmlns="http://www.w3.org/2000/svg" viewBox="0 0 475.12 100.2"><defs><style>.cls-1{fill:#fff;}.cls-2,.cls-3{fill:#ffcb32;}.cls-3{opacity:0.25;}</style></defs><title>WMSB-logo-white-icon</title><g id="Layer_2" data-name="Layer 2"><g id="Layer_1-2" data-name="Layer 1"><path class="cls-1" d="M0,9.57H22.88l4.68,36.92c.91,8.84,2,17.68,2.86,26.52h.52c1.56-8.84,3.12-17.81,4.68-26.52L43.68,9.57H62.4l8.06,36.92C72,54.94,73.58,64,75.14,73h.52c.91-9,2-17.94,2.86-26.52L83.2,9.57h21.32l-14,84.5H62.14l-6.5-33.54C54.34,54,53.3,47,52.52,40.77H52C51.09,47,50.18,54,48.88,60.53L42.64,94.07H14.82Z"/><path class="cls-1" d="M116.48,9.57H140.4l12.74,34.58C154.7,48.83,156,54,157.56,59h.52c1.56-4.94,2.86-10.14,4.42-14.82L174.72,9.57h23.92v84.5H178.36v-25c0-8.58,1.82-21.71,2.86-30.16h-.52l-7,20.28-10.4,28h-12l-10.4-28L134.16,39h-.52c1,8.45,2.86,21.58,2.86,30.16v25h-20Z"/><path class="cls-1" d="M210.6,83.54,223.34,68.2c6,4.81,13.52,8.19,19.76,8.19,6.76,0,9.62-2.21,9.62-6,0-4-4.29-5.33-11.44-8.19L230.75,57.8c-9.1-3.64-17-11.31-17-23.53,0-14.43,13-26.26,31.46-26.26a40.62,40.62,0,0,1,28.08,11.31l-11.18,14c-5.72-4-10.66-6.11-16.9-6.11-5.46,0-8.84,1.95-8.84,5.72,0,4,4.81,5.46,12.48,8.45l10.27,4c10.53,4.16,16.51,11.44,16.51,23.14,0,14.3-12,27-33,27A48.94,48.94,0,0,1,210.6,83.54Z"/><path class="cls-1" d="M287.56,9.57H318c17.68,0,32,4.42,32,21.06,0,7.28-4.16,15.6-10.66,18.2v.52c8.06,2.34,14.56,8.58,14.56,19.76,0,17.42-15.08,25-33.28,25h-33Zm29.9,33c7.28,0,10.66-3.38,10.66-8.58s-3.38-7.28-10.66-7.28h-7.54V42.59ZM319,76.91c8.84,0,13-3.12,13-9.36S327.86,59,319,59h-9.1V76.91Z"/><path class="cls-2" d="M425,0a50.1,50.1,0,1,0,50.1,50.1A50.11,50.11,0,0,0,425,0Zm0,95.8a45.7,45.7,0,1,1,45.7-45.7A45.71,45.71,0,0,1,425,95.8Z"/><path class="cls-3" d="M425,50.1,400.4,11.6S424.92-6.17,453,14Z"/><path class="cls-2" d="M417.82,12.88a3.05,3.05,0,1,1-3.05-3.05A3.05,3.05,0,0,1,417.82,12.88Z"/><path class="cls-2" d="M442.94,16.79a1.43,1.43,0,1,1-1.43-1.44A1.43,1.43,0,0,1,442.94,16.79Z"/><path class="cls-3" d="M460.79,40.37a3.06,3.06,0,1,1-3.06-3.06A3.06,3.06,0,0,1,460.79,40.37Z"/><path class="cls-3" d="M453,64.47a3.06,3.06,0,1,1-3.05-3A3.06,3.06,0,0,1,453,64.47Z"/><path class="cls-2" d="M425,19a29,29,0,1,0,29,29A29,29,0,0,0,425,19Zm0,55.1A26.08,26.08,0,1,1,451.1,48,26.08,26.08,0,0,1,425,74.1Z"/></g></g></svg>