<svg xmlns="http://www.w3.org/2000/svg" viewBox="2445 55 288.36 62.597">
  <defs>
    <style>
      .cls-1 {
        fill: #ccbe97;
      }

      .cls-2 {
        fill: #39909a;
      }

      .cls-3 {
        fill: #956b51;
      }

      .cls-4 {
        fill: #00a2e1;
      }

      .cls-5 {
        fill: #7eb963;
      }

      .cls-6 {
        fill: #ec4644;
      }

      .cls-7 {
        fill: #a0afd4;
      }

      .cls-8 {
        fill: #f6be1e;
      }

      .cls-9 {
        fill: none;
        stroke: #abacac;
        stroke-miterlimit: 10;
        stroke-width: 0.433px;
      }

      .cls-10 {
        fill: #fff;
      }
    </style>
  </defs>
  <g id="Group_154" data-name="Group 154" transform="translate(2387)">
    <g id="Group_131" data-name="Group 131" transform="translate(58 55)">
      <path id="Path_232" data-name="Path 232" class="cls-1" d="M71.16,7.613h1.088V2.175A2.166,2.166,0,0,0,70.072,0h-11A2.166,2.166,0,0,0,56.9,2.175V13.293a2.166,2.166,0,0,0,2.175,2.175h5.559V14.26A6.525,6.525,0,0,1,71.16,7.613Z" transform="translate(-56.779)"/>
      <path id="Path_233" data-name="Path 233" class="cls-2" d="M58.975,19.4A2.166,2.166,0,0,0,56.8,21.575v11a2.166,2.166,0,0,0,2.175,2.175h5.559V19.4Z" transform="translate(-56.8 4.044)"/>
      <path id="Path_234" data-name="Path 234" class="cls-3" d="M96.967,46.592H96v5.68a2.166,2.166,0,0,0,2.175,2.175h11a2.166,2.166,0,0,0,2.175-2.175v-11a2.166,2.166,0,0,0-2.175-2.175h-5.68v1.088A6.473,6.473,0,0,1,96.967,46.592Z" transform="translate(-48.629 8.15)"/>
      <path id="Path_235" data-name="Path 235" class="cls-4" d="M76.3,50.959a2.166,2.166,0,0,0,2.175,2.175h11a2.166,2.166,0,0,0,2.175-2.175V45.4H76.3Z" transform="translate(-52.735 9.463)"/>
      <path id="Path_236" data-name="Path 236" class="cls-5" d="M64.534,40.088V39H58.975A2.166,2.166,0,0,0,56.8,41.175V52.293a2.166,2.166,0,0,0,2.175,2.175h11a2.166,2.166,0,0,0,2.175-2.175V46.734H71.06A6.765,6.765,0,0,1,64.534,40.088Z" transform="translate(-56.8 8.129)"/>
      <path id="Path_237" data-name="Path 237" class="cls-6" d="M103.492,14.26v1.208h5.68a2.166,2.166,0,0,0,2.175-2.175V2.175A2.166,2.166,0,0,0,109.172,0h-11A2.166,2.166,0,0,0,96,2.175V7.613h.967A6.6,6.6,0,0,1,103.492,14.26Z" transform="translate(-48.629)"/>
      <path id="Path_238" data-name="Path 238" class="cls-7" d="M107.88,34.847a2.166,2.166,0,0,0,2.175-2.175v-11A2.166,2.166,0,0,0,107.88,19.5H102.2V34.968h5.68Z" transform="translate(-47.337 4.065)"/>
      <path id="Path_239" data-name="Path 239" class="cls-8" d="M91.747,2.175A2.166,2.166,0,0,0,89.572,0h-11A2.166,2.166,0,0,0,76.4,2.175V7.613H91.868V2.175Z" transform="translate(-52.714)"/>
      <path id="Path_240" data-name="Path 240" class="cls-9" d="M104.97,22.131h5.438V14.155H104.97A2.166,2.166,0,0,1,102.8,11.98V6.3H94.578v5.68A2.166,2.166,0,0,1,92.4,14.155h-11a2.166,2.166,0,0,1-2.175-2.175V6.3h-8.1v5.68a2.166,2.166,0,0,1-2.175,2.175H63.4v7.976h5.559a2.166,2.166,0,0,1,2.175,2.175v11a2.166,2.166,0,0,1-2.175,2.175H63.4v8.338h5.559a2.166,2.166,0,0,1,2.175,2.175v5.438h8.1V47.991a2.166,2.166,0,0,1,2.175-2.175h11a2.166,2.166,0,0,1,2.175,2.175v5.438H102.8V47.991a2.166,2.166,0,0,1,2.175-2.175h5.438V37.6H104.97a2.166,2.166,0,0,1-2.175-2.175v-11A2.2,2.2,0,0,1,104.97,22.131ZM94.457,35.182a2.166,2.166,0,0,1-2.175,2.175h-11a2.166,2.166,0,0,1-2.175-2.175v-11a2.166,2.166,0,0,1,2.175-2.175h11a2.166,2.166,0,0,1,2.175,2.175Z" transform="translate(-55.424 1.313)"/>
    </g>
    <path id="Path_241" data-name="Path 241" class="cls-10" d="M15.468,71.721c-.363-2.779-2.779-3.988-5.438-3.988-5.921,0-7.734,5.438-7.734,10.151S4.109,88.035,10.03,88.035c2.538,0,5.2-1.329,5.68-4.23h2.3a7.821,7.821,0,0,1-7.976,6.163C3.021,89.969,0,84.289,0,77.884S3.021,65.8,10.03,65.8c3.746,0,7.372,1.692,7.734,5.921Z" transform="translate(146.36 1.321)"/>
    <path id="Path_242" data-name="Path 242" class="cls-10" d="M28.293,89.969c-6.646,0-10.393-4.834-10.393-12.084S21.646,65.8,28.293,65.8s10.393,4.834,10.393,12.084S34.939,89.969,28.293,89.969Zm0-1.934c5.8,0,8.1-5.075,8.1-10.151s-2.3-10.151-8.1-10.151-8.1,5.075-8.1,10.151S22.492,88.035,28.293,88.035Z" transform="translate(150.092 1.321)"/>
    <path id="Path_243" data-name="Path 243" class="cls-10" d="M39.3,66.2h2.417l12.81,20.423h.121V66.2H56.7V89.4H54.043L41.475,69.342h-.121V89.4H39.3Z" transform="translate(154.552 1.404)"/>
    <path id="Path_244" data-name="Path 244" class="cls-10" d="M73.168,71.721c-.363-2.779-2.779-3.988-5.438-3.988C61.809,67.734,60,73.172,60,77.884s1.813,10.151,7.734,10.151c2.538,0,5.2-1.329,5.68-4.23h2.3a7.821,7.821,0,0,1-7.976,6.163c-7.009,0-10.03-5.68-10.03-12.084S60.721,65.8,67.73,65.8c3.746,0,7.372,1.692,7.734,5.921Z" transform="translate(158.388 1.321)"/>
    <path id="Path_245" data-name="Path 245" class="cls-10" d="M85.993,89.969c-6.646,0-10.393-4.834-10.393-12.084S79.346,65.8,85.993,65.8s10.393,4.834,10.393,12.084S92.76,89.969,85.993,89.969Zm0-1.934c5.8,0,8.1-5.075,8.1-10.151s-2.3-10.151-8.1-10.151-8.1,5.075-8.1,10.151S80.192,88.035,85.993,88.035Z" transform="translate(162.119 1.321)"/>
    <path id="Path_246" data-name="Path 246" class="cls-10" d="M99.454,89.4H97.4V66.2h7.613a9.283,9.283,0,0,1,5.438,1.208,5.357,5.357,0,0,1,2.417,4.834c0,2.538-1.813,4.35-4.471,4.955v.121c3.021.483,3.625,2.538,3.867,5.2.363,3.746.242,5.559,1.208,6.888h-2.417a16.244,16.244,0,0,1-.846-4.834c-.483-5.317-.846-6.284-5.075-6.284h-5.8V89.4Zm4.471-12.93c3.021,0,6.646-.242,6.646-4.109,0-4.471-4.23-4.109-6.4-4.109H99.454v8.338h4.471Z" transform="translate(166.663 1.404)"/>
    <path id="Path_247" data-name="Path 247" class="cls-10" d="M121.084,66.2c7.613,0,11.964,3.867,11.964,11.6s-4.35,11.6-11.964,11.6H114.8V66.2Zm.483,21.269c6.526,0,9.184-3.867,9.184-9.668,0-6.888-3.988-9.909-10.634-9.668h-3.263V87.469Z" transform="translate(170.29 1.404)"/>
    <path id="Path_248" data-name="Path 248" class="cls-10" d="M136.254,66.2V81.185c.121,4.23,2.538,6.767,6.4,6.767s6.284-2.538,6.4-6.767V66.2h2.054V81.306c-.121,4.955-2.9,8.7-8.459,8.7-5.68,0-8.459-3.625-8.459-8.7V66.2Z" transform="translate(174.334 1.404)"/>
    <path id="Path_249" data-name="Path 249" class="cls-10" d="M159.288,89.99a6.655,6.655,0,0,1-6.888-6.526h2.3c.121,3.625,2.659,4.592,5.8,4.592,2.659,0,5.559-1.571,5.559-4.471,0-2.3-1.692-3.384-3.625-4.109-3.746-1.208-9.547-2.417-9.547-7.492,0-4.109,3.746-6.284,7.372-6.284,3.021,0,7.009,1.088,7.613,5.559h-2.3c-.121-2.9-2.659-3.625-5.075-3.625s-5.438,1.208-5.438,4.109c0,6.646,13.172,3.625,13.172,11.6C168.351,88.54,164,89.99,159.288,89.99Z" transform="translate(178.127 1.3)"/>
    <path id="Path_250" data-name="Path 250" class="cls-10" d="M2,98.8a.663.663,0,0,0,.725-.483,4.991,4.991,0,0,0,.483-1.088l2.9-7.13h.363l2.9,6.888.725,1.45a.731.731,0,0,0,.725.363v.363H6.592V98.8c.483,0,.725,0,.846-.121.121,0,.242-.242.242-.363a.914.914,0,0,0-.121-.483c0-.121-.121-.242-.121-.483L7.075,96.5h-2.9a3.271,3.271,0,0,0-.363.967,2.126,2.126,0,0,0-.121.725.32.32,0,0,0,.363.363,4.273,4.273,0,0,0,.725.121v.363H2Zm4.834-2.779L5.625,93H5.5L4.3,96.021Z" transform="translate(146.777 6.386)"/>
    <path id="Path_251" data-name="Path 251" class="cls-10" d="M17.321,98.78a1.156,1.156,0,0,0,.846-.242,1.562,1.562,0,0,0,.242-.967v-5.8a1.562,1.562,0,0,0-.242-.967,1.408,1.408,0,0,0-.846-.242V90.2h4.23a5,5,0,0,1,2.538.483,1.908,1.908,0,0,1,.846,1.813,2.042,2.042,0,0,1-.363,1.208,2.853,2.853,0,0,1-1.088.967,4.293,4.293,0,0,1-1.208.242H20.463V97.33a1.562,1.562,0,0,0,.242.967,1.408,1.408,0,0,0,.846.242V98.9H17.2V98.78Zm4.713-4.35a2.016,2.016,0,0,0,.6-1.692,4.507,4.507,0,0,0-.242-1.45,1.269,1.269,0,0,0-1.088-.6.906.906,0,0,0-.6.121.444.444,0,0,0-.121.363v3.5A3.471,3.471,0,0,0,22.034,94.43Z" transform="translate(149.946 6.407)"/>
    <path id="Path_252" data-name="Path 252" class="cls-10" d="M31.521,98.78a1.156,1.156,0,0,0,.846-.242,1.562,1.562,0,0,0,.242-.967v-5.8a1.562,1.562,0,0,0-.242-.967,1.408,1.408,0,0,0-.846-.242V90.2h4.23a5,5,0,0,1,2.538.483,1.908,1.908,0,0,1,.846,1.813,2.042,2.042,0,0,1-.363,1.208,2.853,2.853,0,0,1-1.088.967,4.293,4.293,0,0,1-1.208.242H34.663V97.33a1.562,1.562,0,0,0,.242.967,1.408,1.408,0,0,0,.846.242V98.9H31.4V98.78Zm4.713-4.35a2.016,2.016,0,0,0,.6-1.692,4.507,4.507,0,0,0-.242-1.45,1.269,1.269,0,0,0-1.088-.6.906.906,0,0,0-.6.121.444.444,0,0,0-.121.363v3.5A3.471,3.471,0,0,0,36.234,94.43Z" transform="translate(152.906 6.407)"/>
    <path id="Path_253" data-name="Path 253" class="cls-10" d="M45.621,98.738c.363,0,.6,0,.725-.121a.731.731,0,0,0,.363-.725V91.608a.731.731,0,0,0-.363-.725c-.121-.121-.363-.121-.725-.121V90.4h4.592v.363A2.413,2.413,0,0,0,49.125,91a1.562,1.562,0,0,0-.242.967v6.163a.923.923,0,0,0,.242.6c.121.121.483.121.846.121a3.294,3.294,0,0,0,1.934-.483,4.015,4.015,0,0,0,1.329-2.054H53.6l-.483,2.9H45.5v-.483Z" transform="translate(155.845 6.449)"/>
    <path id="Path_254" data-name="Path 254" class="cls-10" d="M60.4,98.738a1.792,1.792,0,0,0,.846-.121.731.731,0,0,0,.363-.725V91.608a.731.731,0,0,0-.363-.725c-.121-.121-.483-.121-.846-.121V90.4h4.592v.363a6.814,6.814,0,0,0-.846.121.731.731,0,0,0-.363.725v6.284a.731.731,0,0,0,.363.725,1.872,1.872,0,0,0,.967.242v.363H60.521v-.483Z" transform="translate(158.95 6.449)"/>
    <path id="Path_255" data-name="Path 255" class="cls-10" d="M78.584,90.463a5.339,5.339,0,0,0,.967.363c.121,0,.242-.121.363-.242s.121-.242.242-.363H80.4v3.021h-.363a8.915,8.915,0,0,0-.967-1.571,2.7,2.7,0,0,0-2.054-1.088A1.874,1.874,0,0,0,75.2,91.671a7.045,7.045,0,0,0-.6,3.021,6.091,6.091,0,0,0,.363,2.3,2.321,2.321,0,0,0,2.3,1.692,2.968,2.968,0,0,0,1.813-.6,8.816,8.816,0,0,0,1.208-1.088l.363.363a5.679,5.679,0,0,1-1.329,1.208,3.979,3.979,0,0,1-2.3.725A4.837,4.837,0,0,1,73.75,98.2a4.216,4.216,0,0,1-1.45-3.384,5.042,5.042,0,0,1,1.329-3.5A4.28,4.28,0,0,1,76.771,90.1,4.415,4.415,0,0,1,78.584,90.463Z" transform="translate(161.431 6.386)"/>
    <path id="Path_256" data-name="Path 256" class="cls-10" d="M87.5,98.8a.663.663,0,0,0,.725-.483,4.992,4.992,0,0,0,.483-1.088l2.9-7.13h.363l2.9,6.888.725,1.45a.731.731,0,0,0,.725.363v.363h-4.23V98.8c.483,0,.725,0,.846-.121.121,0,.242-.242.242-.363a.914.914,0,0,0-.121-.483c0-.121-.121-.242-.121-.483l-.363-.846h-2.9a3.271,3.271,0,0,0-.363.967,2.126,2.126,0,0,0-.121.725.32.32,0,0,0,.363.363,4.274,4.274,0,0,0,.725.121v.363H87.621V98.8Zm4.955-2.779L91.246,93h-.121l-1.208,3.021Z" transform="translate(164.599 6.386)"/>
    <path id="Path_257" data-name="Path 257" class="cls-10" d="M102.1,90.3h7.855v2.659h-.363a2.4,2.4,0,0,0-1.088-1.934,2.617,2.617,0,0,0-1.45-.242v6.888a1.562,1.562,0,0,0,.242.967,1.74,1.74,0,0,0,1.088.242v.363h-4.592V98.88A.968.968,0,0,0,105,97.672V90.783a4.507,4.507,0,0,0-1.45.242,2.4,2.4,0,0,0-1.088,1.934H102.1Z" transform="translate(167.643 6.428)"/>
    <path id="Path_258" data-name="Path 258" class="cls-10" d="M116.8,98.738a1.792,1.792,0,0,0,.846-.121.731.731,0,0,0,.363-.725V91.608a.731.731,0,0,0-.363-.725c-.121-.121-.483-.121-.846-.121V90.4h4.592v.363a6.814,6.814,0,0,0-.846.121.731.731,0,0,0-.363.725v6.284a.731.731,0,0,0,.363.725,1.872,1.872,0,0,0,.967.242v.363h-4.592v-.483Z" transform="translate(170.707 6.449)"/>
    <path id="Path_259" data-name="Path 259" class="cls-10" d="M136.655,91.412a4.547,4.547,0,0,1,1.329,3.384,4.747,4.747,0,0,1-1.329,3.384,4.462,4.462,0,0,1-3.263,1.329,4.216,4.216,0,0,1-3.384-1.45,4.279,4.279,0,0,1-1.208-3.142,4.747,4.747,0,0,1,1.329-3.384,4.547,4.547,0,0,1,3.384-1.329A4,4,0,0,1,136.655,91.412Zm-1.329,5.8a7.087,7.087,0,0,0,.242-2.417,7.239,7.239,0,0,0-.6-3.142,1.823,1.823,0,0,0-1.692-1.088,2.147,2.147,0,0,0-2.054,1.813,7.087,7.087,0,0,0-.242,2.417,12.467,12.467,0,0,0,.242,2.417,2.03,2.03,0,0,0,2.054,1.692A2.057,2.057,0,0,0,135.326,97.212Z" transform="translate(173.208 6.404)"/>
    <path id="Path_260" data-name="Path 260" class="cls-10" d="M144.5,98.78a1.562,1.562,0,0,0,.967-.242,1.3,1.3,0,0,0,.242-.725V91.65a7.231,7.231,0,0,0-.725-.846.444.444,0,0,0-.363-.121v-.363H147.4l4.471,5.438h.121V91.892a1.872,1.872,0,0,0-.242-.967c-.121-.242-.483-.363-.967-.363V90.2h2.779v.363c-.363.121-.725.121-.846.242a1.022,1.022,0,0,0-.242.725v7.734h-.363l-5.8-6.888h-.121v5.075c0,.363,0,.725.121.846.121.242.483.363,1.088.483v.363h-2.9Z" transform="translate(176.481 6.407)"/>
    <path id="Path_261" data-name="Path 261" class="cls-10" d="M160.1,96.042h.363a4.554,4.554,0,0,0,.967,2.175,2,2,0,0,0,1.571.6,1.273,1.273,0,0,0,1.208-.483,1.607,1.607,0,0,0,.363-.967,1.372,1.372,0,0,0-.363-.967,3.688,3.688,0,0,0-1.088-.6l-.846-.363a4.044,4.044,0,0,1-1.692-1.208,2.228,2.228,0,0,1-.483-1.571,2.9,2.9,0,0,1,.725-1.813A2.344,2.344,0,0,1,162.879,90a4.344,4.344,0,0,1,1.329.242,3.9,3.9,0,0,1,.725.242c.121,0,.242,0,.242-.121s.121-.242.121-.363h.363v2.9H165.3a4.465,4.465,0,0,0-.846-1.692,2.127,2.127,0,0,0-1.571-.725,1.189,1.189,0,0,0-.967.363,1.1,1.1,0,0,0-.363.846,1.372,1.372,0,0,0,.363.967,9.563,9.563,0,0,0,1.571.967l.967.483a3.337,3.337,0,0,1,.967.725,2.46,2.46,0,0,1,.725,1.813,2.665,2.665,0,0,1-.725,1.813,2.953,2.953,0,0,1-2.417.846,2.359,2.359,0,0,1-.846-.121,3.074,3.074,0,0,1-.846-.242l-.242-.121h-.242c-.121,0-.242,0-.242.121s-.121.242-.121.363H160.1V96.042Z" transform="translate(179.732 6.365)"/>
  </g>
</svg>
