<?xml version="1.0" encoding="utf-8"?>
<!-- Generator: Adobe Illustrator 21.1.0, SVG Export Plug-In . SVG Version: 6.00 Build 0)  -->
<svg version="1.1" id="Layer_1" xmlns="http://www.w3.org/2000/svg" xmlns:xlink="http://www.w3.org/1999/xlink" x="0px" y="0px"
	 viewBox="0 0 361.9 175.1" style="enable-background:new 0 0 361.9 175.1;" xml:space="preserve">
<style type="text/css">
	.st0{fill:#333333;}
	.st1{fill:#39B54A;}
	.st2{fill:#93278F;}
	.st3{fill:#F15A24;}
	.st4{fill:#29ABE2;}
	.st5{fill:#808080;}
</style>
<g id="Group_3137" transform="translate(-22483 -22425)">
	<g id="Group_507" transform="translate(107.34 551.34)">
		<path id="Path_267" class="st0" d="M22499.9,21898.7v76.2c0,3.8-4.2,7.1-9,7.1c-5,0-8.9-3.2-8.9-7.1v-54.4l-23.3,25.9
			c-1.9,2-4.5,3.1-7.3,3h-0.3c-2.8,0.1-5.5-1-7.4-3l-23.1-25.9v54.5c0,3.8-4,7.1-9,7.1c-4.9,0-8.9-3.2-8.9-7.1v-76.3
			c0-3.8,4-7.1,8.9-7.1h0.5c2.7-0.1,5.3,1,7.1,3l32.2,35.7l32.2-35.7c1.9-2,4.5-3.1,7.3-3h0.2
			C22495.7,21891.8,22499.9,21894.9,22499.9,21898.7z"/>
		<path id="Path_268" class="st0" d="M22581.2,21960.8h-39.3l-7.9,16.8c-1.5,2.8-4.9,4.5-8.4,4.5c-1,0-2.1-0.1-3.1-0.4
			c-4.7-1.5-6.9-5.5-5.3-9.3l35.7-76.1c1.8-3,5.1-4.7,8.5-4.5c3.5-0.3,6.8,1.5,8.5,4.5l35.7,76.1c1.6,3.8-0.7,7.9-5.3,9.3
			c-1,0.3-2,0.4-3.1,0.4c-3.6,0-6.9-1.7-8.3-4.5L22581.2,21960.8z M22574.6,21946.6l-13.1-27.8l-13.1,27.8H22574.6z"/>
		<g id="Group_506" transform="translate(218.581 0.811)">
			<path id="Path_269" class="st1" d="M22431.3,21933.7h11.9v-12.3l-25.9-27c-3-3.3-8.1-3.6-11.5-0.7c-0.2,0.2-0.3,0.3-0.5,0.5
				c-3.4,3.2-3.6,8.6-0.4,12c0,0,0,0,0,0L22431.3,21933.7z"/>
			<path id="Path_270" class="st2" d="M22450,21933.7h11.9l26.4-27.4c3.2-3.4,3.1-8.8-0.3-12c0,0,0,0,0,0c-3-3.3-8.1-3.5-11.4-0.5
				c-0.2,0.2-0.4,0.4-0.6,0.6l-25.9,27L22450,21933.7L22450,21933.7z"/>
			<path id="Path_271" class="st3" d="M22443.3,21939.9h-11.1l-27.1,28.2c-3.3,3.4-3.2,8.7,0.2,12c0,0,0,0,0,0
				c3.3,3.3,8.6,3.3,11.9,0c0.1-0.1,0.1-0.1,0.2-0.2l25.9-26.9L22443.3,21939.9L22443.3,21939.9z"/>
			<path id="Path_272" class="st4" d="M22488.2,21968.1l-27.1-28.2h-11.1v13.1l25.9,26.9c2,1.9,4.7,2.9,7.4,2.6
				c1.8-0.3,3.4-1.1,4.7-2.4C22491.4,21976.9,22491.5,21971.5,22488.2,21968.1C22488.2,21968.1,22488.2,21968.1,22488.2,21968.1z"/>
		</g>
	</g>
	<g id="Group_508" transform="translate(108.023 662.82)">
		<path id="Path_273" class="st5" d="M22402.6,21905.5c0.1-7.7,6.4-13.8,14.1-13.8c3.2,0,6.3,1,8.9,3c0.9,0.7,1.1,2.1,0.3,3.1
			c0,0,0,0,0,0c-0.8,0.9-2.1,1.1-3.1,0.4c-1.7-1.4-3.9-2.2-6.1-2.1c-2.6,0-5,1-6.9,2.7c-1.8,1.8-2.8,4.2-2.8,6.7
			c0,2.5,1,4.9,2.8,6.7c1.9,1.8,4.3,2.7,6.9,2.7c2.2,0,4.4-0.7,6.1-2.1c1-0.7,2.3-0.5,3.1,0.4c0.7,1,0.5,2.3-0.3,3.1
			c-2.5,2-5.7,3-8.9,3c-7.6,0.2-13.9-5.8-14.1-13.4C22402.6,21905.7,22402.6,21905.6,22402.6,21905.5z"/>
		<path id="Path_274" class="st5" d="M22453.9,21917.2v-22.6c0-1.2,0.9-2.1,2.1-2.1c0,0,0,0,0,0h12.5c1.2,0,2.1,1,2.1,2.1
			c0,1.2-1,2.1-2.1,2.1h-10.4v7h9c1.2,0,2.1,1,2.1,2.1c0,1.2-0.9,2.1-2.1,2.1c0,0,0,0,0,0h-9v7.1h10.4c1.2,0,2.1,1,2.1,2.1
			c0,1.2-1,2.1-2.1,2.1h-12.5C22454.9,21919.3,22453.9,21918.4,22453.9,21917.2C22453.9,21917.2,22453.9,21917.2,22453.9,21917.2z"
			/>
		<path id="Path_275" class="st5" d="M22504.2,21917.2c0,1.1-0.9,2.1-2,2.1c-1.2,0-2.1-0.9-2.1-2.1c0,0,0,0,0,0v-22.3l0,0
			c0-0.7,0.3-1.4,0.9-1.8c0.9-0.7,2.2-0.5,2.9,0.4l12.4,17.2v-15.8c0-1.1,0.9-2,2-2c1.1,0,2.1,0.9,2.1,2v22.3c0,1.2-1,2.1-2.1,2.1
			c-0.6,0-1.2-0.3-1.5-0.8c-0.1-0.1-0.2-0.2-0.2-0.3l-12.3-17.1L22504.2,21917.2z"/>
		<path id="Path_276" class="st5" d="M22566.1,21896.7h-6.1v20.5c0,1.2-0.9,2.1-2.1,2.1c0,0,0,0,0,0c-1.2,0-2.1-1-2.1-2.1v-20.5
			h-6.1c-1.2,0-2.1-1-2.1-2.1c0-1.2,0.9-2.1,2.1-2.1c0,0,0,0,0,0h16.4c1.2,0,2.1,1,2.1,2.1
			C22568.3,21895.7,22567.4,21896.7,22566.1,21896.7C22566.2,21896.7,22566.2,21896.7,22566.1,21896.7z"/>
		<path id="Path_277" class="st5" d="M22603.7,21894.6c0-1.2,0.9-2.1,2.1-2.1c0,0,0,0,0,0c1.2,0,2.1,1,2.1,2.1v22.6
			c0,1.2-1,2.1-2.1,2.1c-1.2,0-2.1-0.9-2.1-2.1c0,0,0,0,0,0V21894.6z"/>
		<path id="Path_278" class="st5" d="M22652.4,21919c-0.1-0.1-0.2-0.1-0.3-0.2v-0.1c-0.1-0.1-0.2-0.2-0.2-0.3l0,0
			c0-0.1-0.1-0.2-0.2-0.3l-9.4-22.4c-0.4-1.1,0.1-2.3,1.2-2.7c1-0.4,2.2,0.1,2.7,1.1l7.5,17.8l7.5-17.8c0.5-1.1,1.7-1.5,2.8-1.1
			c1,0.5,1.5,1.6,1.1,2.7l-9.5,22.4c0,0.1-0.1,0.2-0.2,0.3l0,0c0,0.1-0.2,0.2-0.2,0.3c0,0.1,0,0.1-0.1,0.1c-0.1,0.1-0.2,0.1-0.3,0.2
			h-0.1c-0.1,0-0.2,0.2-0.3,0.2h-0.1c-0.1,0-0.2,0-0.3,0.1h-0.9c-0.1,0-0.3-0.1-0.3-0.1l0,0
			C22652.8,21919.1,22652.6,21919,22652.4,21919z"/>
		<path id="Path_279" class="st5" d="M22693.2,21917.2v-22.6c0-1.2,0.9-2.1,2.1-2.1c0,0,0,0,0,0h12.5c1.2,0,2.1,1,2.1,2.1
			c0,1.2-1,2.1-2.1,2.1h-10.4v7h9c1.2,0,2.1,1,2.1,2.1c0,1.2-0.9,2.1-2.1,2.1c0,0,0,0,0,0h-9v7.1h10.4c1.2,0,2.1,1,2.1,2.1
			c0,1.2-1,2.1-2.1,2.1h-12.5C22694.1,21919.3,22693.2,21918.4,22693.2,21917.2C22693.2,21917.2,22693.2,21917.2,22693.2,21917.2z"
			/>
	</g>
</g>
</svg>
