<?xml version="1.0" encoding="utf-8"?>
<!-- Generator: Adobe Illustrator 21.1.0, SVG Export Plug-In . SVG Version: 6.00 Build 0)  -->
<svg version="1.1" id="Layer_1" xmlns="http://www.w3.org/2000/svg" xmlns:xlink="http://www.w3.org/1999/xlink" x="0px" y="0px"
	 viewBox="0 0 368.3 179.6" style="enable-background:new 0 0 368.3 179.6;" xml:space="preserve">
<style type="text/css">
	.st0{fill:#FFFFFF;}
	.st1{fill:#39B84A;}
	.st2{fill:#93278F;}
	.st3{fill:#F15A24;}
	.st4{fill:#29ABE2;}
</style>
<rect width="368.3" height="179.6"/>
<g id="Group_3138" transform="translate(-22483 -22425)">
	<g id="Group_523" transform="translate(112.803 213.803)">
		<path id="Path_306" class="st0" d="M22401,22356.9c0.1-7.7,6.4-13.8,14.1-13.8c3.2,0,6.3,1,8.9,3c0.9,0.7,1.1,2.1,0.3,3.1
			c0,0,0,0,0,0c-0.8,0.9-2.1,1.1-3.1,0.4c-1.7-1.4-3.9-2.2-6.1-2.1c-2.6,0-5,1-6.9,2.7c-1.8,1.8-2.8,4.2-2.8,6.7
			c0,2.5,1,4.9,2.8,6.7c1.9,1.8,4.3,2.7,6.9,2.7c2.2,0,4.4-0.7,6.1-2.1c1-0.7,2.3-0.5,3.1,0.4c0.7,1,0.5,2.3-0.3,3.1
			c-2.5,2-5.7,3-8.9,3c-7.6,0.2-13.9-5.9-14.1-13.5C22401,22357.1,22401,22357,22401,22356.9z"/>
		<path id="Path_307" class="st0" d="M22452.4,22368.6v-22.6c0-1.2,0.9-2.1,2.1-2.1c0,0,0,0,0,0h12.5c1.2,0,2.1,1,2.1,2.1
			s-1,2.1-2.1,2.1h-10.4v7h9c1.2,0,2.1,1,2.1,2.1c0,1.2-0.9,2.1-2.1,2.1c0,0,0,0,0,0h-9v7.1h10.4c1.2,0,2.1,1,2.1,2.1
			c0,1.2-1,2.1-2.1,2.1h-12.5c-1.1,0-2.1-0.8-2.1-2C22452.4,22368.7,22452.4,22368.7,22452.4,22368.6z"/>
		<path id="Path_308" class="st0" d="M22502.5,22368.6c0,1.1-0.9,2.1-2,2.1c-1.2,0-2.1-0.9-2.1-2.1c0,0,0,0,0,0v-22.3l0,0
			c0-0.7,0.3-1.4,0.9-1.8c0.9-0.7,2.2-0.5,2.9,0.4l12.4,17.2v-15.8c0-1.1,0.9-2,2.1-2c1.1,0,2.1,0.9,2.1,2v22.3c0,1.2-1,2.1-2.1,2.1
			c-0.6,0-1.2-0.3-1.5-0.8c-0.1-0.1-0.2-0.2-0.2-0.3l-12.3-17.1L22502.5,22368.6z"/>
		<path id="Path_309" class="st0" d="M22564.6,22348.2h-6.1v20.5c0,1.2-0.9,2.1-2.1,2.1c0,0,0,0,0,0c-1.2,0-2.1-1-2.1-2.1v-20.5h-6
			c-1.2,0-2.1-1-2.1-2.1c0-1.2,0.9-2.1,2.1-2.1c0,0,0,0,0,0h16.4c1.2,0,2.1,1,2.1,2.1
			C22566.7,22347.2,22565.8,22348.1,22564.6,22348.2z"/>
		<path id="Path_310" class="st0" d="M22602.1,22346c0-1.2,0.9-2.1,2.1-2.1c0,0,0,0,0,0c1.2,0,2.1,1,2.1,2.1v22.6
			c0,1.2-1,2.1-2.1,2.1c-1.2,0-2.1-0.9-2.1-2.1c0,0,0,0,0,0V22346z"/>
		<path id="Path_311" class="st0" d="M22650.8,22370.4c-0.1-0.1-0.2-0.1-0.3-0.2v-0.1c-0.1-0.1-0.2-0.2-0.2-0.3l0,0
			c0-0.1-0.1-0.2-0.2-0.3l-9.4-22.4c-0.4-1.1,0.1-2.3,1.2-2.7c1-0.4,2.2,0.1,2.7,1.1l7.5,17.8l7.5-17.8c0.4-1.1,1.6-1.6,2.7-1.2
			c1.1,0.4,1.6,1.6,1.2,2.7c0,0,0,0,0,0.1l-9.6,22.3c0,0.1-0.1,0.2-0.2,0.3l0,0c0,0.1-0.2,0.2-0.2,0.3c0,0.1,0,0.1-0.1,0.1
			c-0.1,0.1-0.2,0.1-0.3,0.2h-0.1c-0.1,0-0.2,0.2-0.3,0.2h-0.1c-0.1,0-0.2,0-0.3,0.1h-0.9c-0.1,0-0.3-0.1-0.3-0.1l0,0
			C22651.2,22370.6,22651,22370.4,22650.8,22370.4L22650.8,22370.4z"/>
		<path id="Path_312" class="st0" d="M22691.5,22368.6v-22.6c0-1.2,0.9-2.1,2.1-2.1c0,0,0,0,0,0h12.5c1.2,0,2.1,1,2.1,2.1
			s-1,2.1-2.1,2.1h-10.4v7h9c1.2,0,2.1,1,2.1,2.1c0,1.2-0.9,2.1-2.1,2.1c0,0,0,0,0,0h-9v7.1h10.4c1.2,0,2.1,1,2.1,2.1
			c0,1.2-1,2.1-2.1,2.1h-12.5C22692.5,22370.8,22691.5,22369.9,22691.5,22368.6C22691.5,22368.7,22691.5,22368.7,22691.5,22368.6z"
			/>
	</g>
	<g id="Group_525" transform="translate(112.205 101.918)">
		<path id="Path_313" class="st0" d="M22498.2,22350.6v76.2c0,3.8-4.2,7.1-9,7.1c-5,0-8.9-3.2-8.9-7.1v-54.4l-23.3,25.9
			c-1.9,2-4.5,3.1-7.3,3h-0.3c-2.8,0.1-5.5-1-7.4-3l-23-25.9v54.5c0,3.8-4,7.1-9,7.1c-4.9,0-8.9-3.2-8.9-7.1v-76.3
			c0-3.8,4-7.1,8.9-7.1h0.5c2.7-0.1,5.3,1,7.1,3l32.2,35.7l32.1-35.7c1.9-2,4.5-3.1,7.3-3h0.2
			C22494,22343.7,22498.2,22346.8,22498.2,22350.6z"/>
		<path id="Path_314" class="st0" d="M22579.5,22412.7h-39.3l-7.9,16.8c-1.5,2.8-4.9,4.5-8.4,4.5c-1,0-2.1-0.1-3.1-0.4
			c-4.7-1.5-6.9-5.5-5.3-9.3l35.6-76.1c1.8-3,5.1-4.7,8.5-4.5c3.5-0.3,6.8,1.5,8.5,4.5l35.7,76.1c1.6,3.8-0.7,7.9-5.3,9.3
			c-1,0.3-2,0.4-3.1,0.4c-3.6,0-6.9-1.7-8.3-4.5L22579.5,22412.7z M22572.9,22398.5l-13.1-27.8l-13.1,27.8H22572.9z"/>
		<g id="Group_524" transform="translate(218.497)">
			<path id="Path_315" class="st1" d="M22429.8,22385.1h11.9v-12.3l-26-27c-3-3.3-8.1-3.6-11.5-0.7c-0.2,0.2-0.3,0.3-0.5,0.5
				c-3.4,3.2-3.6,8.6-0.4,12c0,0,0,0,0,0L22429.8,22385.1z"/>
			<path id="Path_316" class="st2" d="M22448.4,22385.1h11.9l26.4-27.4c3.2-3.4,3.1-8.8-0.3-12c0,0,0,0,0,0
				c-3.1-3.3-8.2-3.4-11.5-0.3c-0.2,0.2-0.3,0.3-0.5,0.5l-25.9,27V22385.1z"/>
			<path id="Path_317" class="st3" d="M22441.6,22391.3h-11.1l-27.1,28.2c-3.3,3.4-3.2,8.7,0.2,12c0,0,0,0,0,0
				c3.3,3.3,8.6,3.3,11.9,0c0.1-0.1,0.1-0.1,0.2-0.2l25.9-26.9L22441.6,22391.3L22441.6,22391.3z"/>
			<path id="Path_318" class="st4" d="M22486.6,22419.5l-27.1-28.2h-11.1v13.1l25.9,26.9c2,1.9,4.7,2.9,7.4,2.6
				c1.8-0.3,3.4-1.1,4.7-2.4c3.4-3.2,3.6-8.5,0.4-11.9C22486.7,22419.6,22486.6,22419.5,22486.6,22419.5z"/>
		</g>
	</g>
</g>
</svg>
