<svg xmlns="http://www.w3.org/2000/svg" viewBox="0 0 494.32 52.81"><defs><style>.a{fill:#333;}.b{fill:#39b54a;}.c{fill:#93278f;}.d{fill:#f15a24;}.e{fill:#29abe2;}</style></defs><title>MC-logo-color-h</title><path class="a" d="M209.52,9.61A17.77,17.77,0,0,1,221,13.53a4.18,4.18,0,0,0,5.7-.78A4.22,4.22,0,0,0,226,7a26.67,26.67,0,0,0-16.47-5.56c-14.26.07-26.09,11.55-26.16,25.66a26.08,26.08,0,0,0,26.16,25.66A26.67,26.67,0,0,0,226,47.25a4.21,4.21,0,0,0,.71-5.7,4.32,4.32,0,0,0-5.7-.78,17.91,17.91,0,0,1-11.48,3.92,18.87,18.87,0,0,1-12.83-5.13,17.33,17.33,0,0,1-5.2-12.4,17.59,17.59,0,0,1,5.2-12.4A18.87,18.87,0,0,1,209.52,9.61Z"/><path class="a" d="M266.47,10.82a4,4,0,0,0,3.92-4,4,4,0,0,0-3.92-3.92H243.16a3.87,3.87,0,0,0-3.92,3.92V48.89a3.91,3.91,0,0,0,3.92,3.92l.07-.07s0,.07.14.07h23.1a4,4,0,0,0,0-7.91H247.15V31.78h16.61a4,4,0,0,0,0-7.91H247.15v-13Z"/><path class="a" d="M319.17,3.62a3.88,3.88,0,0,0-3.85,3.85V36.84L292.3,5a3.93,3.93,0,0,0-5.42-.86,3.86,3.86,0,0,0-1.57,3.28V48.89a3.89,3.89,0,1,0,7.77,0V19.31L315.89,51a1.89,1.89,0,0,0,.36.43,3.87,3.87,0,0,0,2.92,1.43,4,4,0,0,0,3.92-3.92V7.47A3.94,3.94,0,0,0,319.17,3.62Z"/><path class="a" d="M368.81,2.91H338.36a3.87,3.87,0,0,0-3.92,3.92,4,4,0,0,0,3.92,4h11.26V48.89a3.91,3.91,0,0,0,3.92,3.92,3.87,3.87,0,0,0,3.92-3.92V10.82h11.33a4,4,0,0,0,3.92-4A3.91,3.91,0,0,0,368.81,2.91Z"/><path class="a" d="M389.93,2.91A3.87,3.87,0,0,0,386,6.83V48.89a3.87,3.87,0,0,0,3.92,3.92,4,4,0,0,0,4-3.92V6.83A4,4,0,0,0,389.93,2.91Z"/><path class="a" d="M448.37,3.77a3.92,3.92,0,0,0-5.13,2.07l-13.9,33-13.9-33a3.84,3.84,0,0,0-5.06-2.07,3.8,3.8,0,0,0-2.14,5.06L425.7,50.46a2.5,2.5,0,0,1,.36.57.07.07,0,0,0,.07.07,1.89,1.89,0,0,0,.36.43c0,.14.07.14.07.21a3,3,0,0,1,.5.36h.07c.21.14.5.36.64.43h.07a.07.07,0,0,1,.07.07,1.68,1.68,0,0,1,.57.14h.14a2.43,2.43,0,0,0,.71.07,2.67,2.67,0,0,0,.71-.07h.14a1.68,1.68,0,0,1,.57-.14c.07-.07.07-.07.14-.07a4,4,0,0,0,.57-.36l.14-.07c.14-.14.29-.21.43-.36a.55.55,0,0,0,.14-.21c.07-.14.29-.29.36-.43s.07,0,.07-.07a2.13,2.13,0,0,0,.29-.57L450.51,8.83A3.91,3.91,0,0,0,448.37,3.77Z"/><path class="a" d="M490.4,44.9H471.08V31.78h16.61a4,4,0,0,0,0-7.91H471.08v-13H490.4a4,4,0,0,0,3.92-4,4,4,0,0,0-3.92-3.92H467.09a3.87,3.87,0,0,0-3.92,3.92V48.89a3.91,3.91,0,0,0,3.92,3.92l.07-.07s0,.07.14.07h23.1a4,4,0,0,0,0-7.91Z"/><path class="b" d="M141.45,24.4h6.91V17.25L133.3,1.6a4.7,4.7,0,0,0-7-.1,4.93,4.93,0,0,0-.19,7Z"/><path class="c" d="M152.29,24.4h6.91L174.52,8.49a4.93,4.93,0,0,0-.19-7,4.7,4.7,0,0,0-7,.1L152.29,17.25Z"/><path class="d" d="M148.36,28h-6.43L126.17,44.39a4.93,4.93,0,0,0,.1,7,5.1,5.1,0,0,0,2.73,1.4,5.2,5.2,0,0,0,4.33-1.49l15-15.61Z"/><path class="e" d="M174.49,44.39,158.73,28h-6.43v7.65l15,15.61a5.2,5.2,0,0,0,4.33,1.49,5.1,5.1,0,0,0,2.73-1.4A4.93,4.93,0,0,0,174.49,44.39Z"/><path class="a" d="M50.34,1.19h-.09a5.51,5.51,0,0,0-4.15,1.7L27.75,23.24,9.4,2.88a5.45,5.45,0,0,0-4.06-1.7H5.07C2.3,1.19,0,3,0,5.24V48.76C0,51,2.3,52.81,5.07,52.81s5.16-1.84,5.16-4.06v-31L23.42,32.46a5.72,5.72,0,0,0,4.24,1.7h.18A5.51,5.51,0,0,0,32,32.46L45.27,17.71v31c0,2.21,2.21,4.06,5.07,4.06S55.5,51,55.5,48.76V5.24C55.5,3,53.1,1.26,50.34,1.19Z"/><path class="a" d="M115.89,47.28,95.52,3.84a5.22,5.22,0,0,0-4.89-2.58,5.32,5.32,0,0,0-4.89,2.58L65.37,47.28c-.92,2.14.37,4.5,3,5.31a6.59,6.59,0,0,0,1.75.22A5.32,5.32,0,0,0,75,50.23l4.52-9.59h22.4l4.52,9.59a5.07,5.07,0,0,0,4.7,2.58,6.13,6.13,0,0,0,1.75-.22C115.53,51.78,116.82,49.42,115.89,47.28ZM83.17,32.53l7.47-15.86L98.1,32.53Z"/></svg>