<svg xmlns="http://www.w3.org/2000/svg" xmlns:xlink="http://www.w3.org/1999/xlink" viewBox="0 0 931.74 388.36"><defs><style>.cls-1{opacity:0.1;}.cls-2{fill:#4aa7de;}.cls-3{fill:#fff;}.cls-4{fill:#f8c44f;}.cls-5{fill:#282d33;}.cls-6{fill:url(#New_Gradient_Swatch_1);}.cls-7{fill:#2e95d1;}.cls-8{fill:url(#linear-gradient);}.cls-9{fill:url(#linear-gradient-2);}.cls-10{fill:url(#New_Gradient_Swatch_1-2);}.cls-11,.cls-12{fill:none;}.cls-11,.cls-14{stroke:#282d33;stroke-width:3px;}.cls-13{fill:#ffd13d;}.cls-14{fill:#b7bec0;}.cls-15{fill:#63bdea;}</style><linearGradient id="New_Gradient_Swatch_1" y1="214.28" x2="810.02" y2="214.28" gradientUnits="userSpaceOnUse"><stop offset="0" stop-color="#63bdea"/><stop offset="1" stop-color="#fff"/></linearGradient><linearGradient id="linear-gradient" x1="-9481.51" y1="1938.14" x2="-9295.84" y2="1938.14" gradientTransform="translate(-1603.95 -9295.84) rotate(-90)" xlink:href="#New_Gradient_Swatch_1"/><linearGradient id="linear-gradient-2" x1="-9532.83" y1="1999.09" x2="-9347.16" y2="1999.09" gradientTransform="translate(-1603.95 -9295.84) rotate(-90)" xlink:href="#New_Gradient_Swatch_1"/><linearGradient id="New_Gradient_Swatch_1-2" x1="744.32" y1="270.47" x2="931.74" y2="270.47" xlink:href="#New_Gradient_Swatch_1"/></defs><title>bg-analytics-vector-01</title><g id="Layer_2" data-name="Layer 2"><g id="Layer_2-2" data-name="Layer 2"><g class="cls-1"><path class="cls-2" d="M616.57,134.43a58.32,58.32,0,0,0,16.91,20L657.76,121Z"/><path class="cls-3" d="M668,35.29a68,68,0,0,0-20.78,3.52,72.25,72.25,0,0,0-46.84,89.57l67.63-22Z"/><path class="cls-4" d="M711.31,65.68C702,56.36,691,50.74,678.74,48.94V110.6l-3.34,4.51-32.77,45.11a59.35,59.35,0,0,0,26.88,6.44h0a59.14,59.14,0,0,0,41.8-101Z"/><path class="cls-5" d="M88.24,72.41l-.49,0a7.56,7.56,0,1,1,.49,0Zm0-12.14a4.59,4.59,0,1,0,.3,0Z"/><rect class="cls-5" x="86.02" y="53.11" width="5.74" height="3" transform="translate(28.72 139.83) rotate(-86.34)"/><rect class="cls-5" x="84.71" y="73.56" width="5.74" height="3" transform="translate(7.06 157.65) rotate(-86.32)"/><rect class="cls-5" x="78.2" y="56.29" width="3" height="5.74" transform="translate(-13.71 92.71) rotate(-56.34)"/><rect class="cls-5" x="95.26" y="67.65" width="3" height="5.74" transform="matrix(0.55, -0.83, 0.83, 0.55, -15.56, 111.98)"/><rect class="cls-5" x="76.18" y="67.88" width="5.74" height="3" transform="translate(-22.57 42.25) rotate(-26.32)"/><rect class="cls-5" x="94.55" y="58.79" width="5.74" height="3" transform="translate(-16.64 49.51) rotate(-26.36)"/><path class="cls-3" d="M239.59,156.31c-1.12,0-2.27,0-3.4-.1l.18-3c1.07.06,2.15.1,3.22.1h.67l0,3Zm4.81-.2-.26-3c1.29-.11,2.59-.27,3.86-.47l.47,3C247.14,155.82,245.76,156,244.4,156.1Zm-12.3-.29c-1.35-.18-2.72-.41-4.05-.69l.61-2.94c1.26.26,2.55.48,3.84.65Zm20.4-1-.69-2.92c1.26-.3,2.52-.64,3.75-1l.9,2.86C255.17,154.12,253.84,154.49,252.51,154.8Zm-28.45-.65c-1.32-.37-2.63-.8-3.91-1.27l1-2.82c1.21.44,2.45.85,3.7,1.2Zm36.27-1.82-1.11-2.79c1.19-.47,2.39-1,3.55-1.57l1.31,2.7C262.86,151.27,261.6,151.83,260.34,152.33Zm-44-1c-1.24-.56-2.48-1.18-3.68-1.83l1.43-2.64c1.14.62,2.31,1.2,3.48,1.73Zm51.37-2.58-1.51-2.59c1.12-.65,2.23-1.35,3.29-2.07l1.69,2.48C270.07,147.33,268.9,148.06,267.72,148.75Zm6.78-4.62-1.86-2.35c1-.8,2-1.65,3-2.52l2,2.21C276.62,142.38,275.57,143.28,274.5,144.13Zm6-5.55-2.19-2.06c.89-.94,1.75-1.93,2.56-2.93l2.33,1.89C282.39,136.54,281.48,137.58,280.55,138.57Zm5.18-6.37-2.46-1.72c.74-1.06,1.45-2.16,2.11-3.27l2.58,1.53C287.26,129.92,286.51,131.08,285.73,132.2Zm4.2-7.06-2.68-1.34c.58-1.16,1.12-2.35,1.61-3.54l2.78,1.14C291.11,122.66,290.53,123.92,289.92,125.14Zm3.12-7.6-2.85-.93c.4-1.23.76-2.49,1.07-3.74l2.91.72C293.85,114.91,293.47,116.24,293,117.54Zm2-8-3-.51c.22-1.27.39-2.56.52-3.85l3,.29C295.43,106.87,295.25,108.24,295,109.57Zm.8-8.17-3-.08q0-.7,0-1.4,0-1.25-.06-2.49l3-.14q.06,1.31.06,2.63Q295.84,100.66,295.82,101.41Zm-3.36-7.84c-.15-1.28-.36-2.57-.6-3.84l2.95-.57c.26,1.34.48,2.71.64,4.06ZM291,85.94c-.34-1.24-.73-2.49-1.16-3.71l2.83-1c.46,1.29.87,2.61,1.23,3.92Zm-2.59-7.32c-.52-1.18-1.08-2.35-1.69-3.5l2.65-1.4c.64,1.21,1.24,2.45,1.79,3.7Zm-3.63-6.87c-.68-1.09-1.42-2.18-2.18-3.22L285,66.76c.8,1.1,1.58,2.25,2.3,3.4Zm-4.59-6.27c-.84-1-1.72-2-2.62-2.87l2.14-2.1c1,1,1.88,2,2.77,3Zm-5.45-5.55c-1-.85-2-1.68-3-2.46l1.81-2.39c1.09.83,2.16,1.7,3.18,2.6Zm-6.19-4.7c-1.08-.7-2.21-1.38-3.34-2l1.45-2.63c1.2.66,2.38,1.37,3.53,2.11Zm-6.82-3.74c-1.18-.54-2.39-1-3.6-1.49l1-2.81c1.28.47,2.56,1,3.8,1.57Zm-7.29-2.71c-1.24-.36-2.51-.68-3.77-.94l.62-2.93c1.34.28,2.68.62,4,1Zm-7.6-1.61c-1.28-.17-2.58-.3-3.87-.39l.19-3c1.36.09,2.74.23,4.09.41Z"/><path class="cls-3" d="M77.66,83a19.38,19.38,0,0,1-3.82-2l1.7-2.48a16.34,16.34,0,0,0,3.23,1.72Zm-7.1-4.85A19.49,19.49,0,0,1,68,74.66l2.59-1.51a16.48,16.48,0,0,0,2.18,2.94ZM66.25,70.7a19.29,19.29,0,0,1-.82-4.25l3-.23a16.44,16.44,0,0,0,.69,3.59Zm2.29-8.14-3-.43a19.39,19.39,0,0,1,1.09-4.19L69.47,59A16.41,16.41,0,0,0,68.55,62.56Zm2.61-6.78L68.66,54.1a19.46,19.46,0,0,1,2.79-3.3L73.52,53A16.51,16.51,0,0,0,71.15,55.77Zm5.29-5L74.91,48.2a19.38,19.38,0,0,1,3.94-1.78l.92,2.86A16.47,16.47,0,0,0,76.44,50.78Zm6.91-2.23-.26-3a19.48,19.48,0,0,1,3,0l-.19,3A16.84,16.84,0,0,0,83.35,48.55Z"/><path class="cls-3" d="M87.9,48.62l0-3,4,0,0,3Zm8-.09,0-3,4,0,0,3Zm8-.08,0-3,4,0,0,3Zm8-.09,0-3,4,0,0,3Zm8-.09,0-3,4,0,0,3Zm8-.09,0-3,4,0,0,3Zm8-.09,0-3,4,0,0,3Zm8-.09,0-3,4,0,0,3Zm8-.08,0-3,4,0,0,3Zm8-.09,0-3,4,0,0,3Zm8-.09,0-3,4,0,0,3Zm8-.08,0-3,4,0,0,3Zm8-.09,0-3,4,0,0,3Zm8-.09,0-3,4,0,0,3Zm8-.08,0-3,4,0,0,3Zm8-.09,0-3,4,0,0,3Zm8-.08,0-3,4,0,0,3Zm8-.09,0-3,4,0,0,3Zm8-.09,0-3,4,0,0,3Zm8-.08,0-3,4,0,0,3Z"/><path class="cls-3" d="M212,149.31l-3.59-1.77,1.33-2.69,3.59,1.77Zm-7.17-3.55L201.27,144l1.33-2.69,3.59,1.77Zm-7.17-3.55-3.59-1.77,1.33-2.69,3.59,1.77Zm-7.17-3.55-3.59-1.77,1.33-2.69,3.59,1.77Zm-7.17-3.55-3.59-1.77,1.33-2.69,3.59,1.77Zm-7.17-3.55-3.59-1.77,1.33-2.69,3.59,1.77ZM169,128l-3.59-1.77,1.33-2.69,3.59,1.77Zm-7.17-3.55-3.59-1.77,1.33-2.69,3.59,1.77Zm-7.17-3.55-3.59-1.77,1.33-2.69,3.59,1.77Zm-7.17-3.55-3.59-1.77,1.33-2.69,3.59,1.77Zm-7.17-3.55-3.59-1.77,1.33-2.69,3.59,1.77Zm-7.17-3.55-3.59-1.77,1.33-2.69,3.59,1.77ZM126,106.75,122.39,105l1.33-2.69,3.59,1.77Zm-7.17-3.55-3.59-1.77,1.33-2.69,3.59,1.77Zm-7.17-3.55L108,97.89l1.33-2.69L113,97Zm-7.17-3.55-3.59-1.77,1.33-2.69,3.59,1.77Zm-7.17-3.55L93.7,90.79,95,88.1l3.59,1.77ZM90.12,89l-3.59-1.77,1.33-2.69,3.59,1.77Zm-7.17-3.55L79.36,83.7,80.69,81l3.59,1.77Z"/><polygon class="cls-6" points="149.2 388.36 0 239.16 11.31 227.85 149.2 365.74 250.24 264.69 313.6 328.05 522.09 119.55 620.73 218.18 798.71 40.2 810.02 51.52 620.73 240.81 522.09 142.17 313.6 350.67 250.24 287.32 149.2 388.36"/><polygon class="cls-3" points="816.26 89.85 800.26 89.85 800.26 49.96 760.38 49.96 760.38 33.96 816.26 33.96 816.26 89.85"/><rect class="cls-7" x="220.01" y="331.5" width="21.4" height="9.24"/><rect class="cls-7" x="249.56" y="322.8" width="21.4" height="17.94"/><rect class="cls-7" x="279.11" y="321.17" width="21.4" height="19.57"/><rect class="cls-7" x="308.66" y="304.86" width="21.4" height="35.88"/><rect class="cls-7" x="338.21" y="311.93" width="21.4" height="28.81"/><rect class="cls-7" x="367.77" y="256.47" width="21.4" height="84.27"/><rect class="cls-7" x="397.32" y="233.1" width="21.4" height="107.64"/><polygon class="cls-8" points="316.88 22.56 299.56 45.12 317.77 45.12 317.77 185.68 350.62 185.68 350.62 45.12 368.83 45.12 351.51 22.56 334.19 0 316.88 22.56"/><polygon class="cls-9" points="377.82 73.88 360.5 96.44 378.71 96.44 378.71 237 411.56 237 411.56 96.44 429.77 96.44 412.46 73.88 395.14 51.32 377.82 73.88"/><path class="cls-10" d="M916.39,295.23a35.2,35.2,0,0,0,.26-4.09,34.5,34.5,0,0,0-43.92-33.27,50.74,50.74,0,0,0-101,6.94c0,.11,0,.23,0,.34a31,31,0,0,0,3.54,61.72H914.55l0-.07c.45,0,.89.07,1.34.07a15.82,15.82,0,0,0,.48-31.64Z"/><rect class="cls-5" x="441.55" y="265.8" width="38.28" height="3"/><rect class="cls-5" x="441.55" y="275.21" width="38.28" height="3"/><polygon class="cls-5" points="428.86 277.16 423.43 273.65 425.06 271.13 428.21 273.17 433.89 266.05 436.24 267.92 428.86 277.16"/><rect class="cls-5" x="441.55" y="293.85" width="38.28" height="3"/><rect class="cls-5" x="441.55" y="303.26" width="38.28" height="3"/><polygon class="cls-5" points="428.86 305.21 423.43 301.7 425.06 299.18 428.21 301.22 433.89 294.1 436.24 295.97 428.86 305.21"/><rect class="cls-5" x="441.55" y="321.9" width="38.28" height="3"/><rect class="cls-5" x="441.55" y="331.31" width="38.28" height="3"/><polygon class="cls-5" points="428.86 333.26 423.43 329.75 425.06 327.23 428.21 329.27 433.89 322.15 436.24 324.02 428.86 333.26"/><polygon class="cls-7" points="359.22 118.13 298.35 118.13 298.35 239.02 378.95 239.02 378.95 137.87 359.22 118.13"/><polygon class="cls-3" points="359.21 138.68 379.76 138.68 359.21 118.12 359.21 138.68"/><rect class="cls-5" x="289.04" y="137.96" width="22.38" height="3"/><rect class="cls-5" x="288.64" y="147.68" width="53.14" height="3"/><rect class="cls-5" x="288.64" y="157.4" width="53.14" height="3"/><rect class="cls-5" x="288.64" y="167.11" width="53.14" height="3"/><rect class="cls-5" x="288.64" y="176.83" width="34.39" height="3"/><polygon class="cls-5" points="280.03 248.23 277.9 246.11 338.2 185.81 349.54 197.15 384.33 162.35 402.22 180.24 447.86 134.6 449.98 136.72 402.22 184.48 384.33 166.59 349.54 201.39 338.2 190.05 280.03 248.23"/><polygon class="cls-5" points="453.26 151.7 450.26 151.7 450.26 136.28 434.84 136.28 434.84 133.28 453.26 133.28 453.26 151.7"/><path class="cls-3" d="M414.56,159.65V117.78a5.29,5.29,0,0,0-5.29-5.29h-2.2a5.29,5.29,0,0,0-5.29,5.29v41.87Z"/><path class="cls-3" d="M413,202.85V151.5c0-2.92-1.8-5.29-4-5.29h-1.67c-2.22,0-4,2.37-4,5.29v51.35Z"/><path class="cls-5" d="M397.13,152.6h-3V127.66a6.8,6.8,0,0,1,6.79-6.79h13.64v3H400.92a3.79,3.79,0,0,0-3.79,3.79Z"/><rect class="cls-5" x="401.77" y="158.37" width="13" height="3"/><rect class="cls-5" x="401.77" y="201.27" width="13" height="3"/><path class="cls-5" d="M409.8,219.75h-3c0-3.43-1.79-7.5-2.75-7.75l-1.13-.29V204h3v5.64C408.5,211.44,409.8,216.79,409.8,219.75Z"/><path class="cls-5" d="M409.8,219.75h-3c0-3,1.3-8.31,3.88-10.12V204h3v7.73l-1.13.29C411.59,212.25,409.8,216.32,409.8,219.75Z"/><path class="cls-5" d="M397.12,224.5c-2.88,0-4.29-2-5.43-3.64s-1.71-2.36-3-2.36-1.91.85-3,2.36-2.55,3.64-5.43,3.64-4.29-2-5.43-3.64-1.71-2.36-3-2.36-1.92.85-3,2.36-2.55,3.64-5.43,3.64-4.29-2-5.43-3.64-1.71-2.36-3-2.36-1.92.85-3,2.36-2.55,3.64-5.43,3.64v-3c1.26,0,1.92-.85,3-2.36s2.55-3.64,5.43-3.64,4.29,2,5.43,3.64,1.71,2.36,3,2.36,1.91-.85,3-2.36,2.55-3.64,5.43-3.64,4.29,2,5.43,3.64,1.71,2.36,3,2.36,1.91-.85,3-2.36,2.55-3.64,5.43-3.64,4.29,2,5.43,3.64,1.71,2.36,3,2.36Z"/><path class="cls-5" d="M479.59,253.31H427.5a2.36,2.36,0,0,1-2.35-2.36V179.81a2.36,2.36,0,0,1,2.35-2.36h52.08a2.36,2.36,0,0,1,2.36,2.36v71.14A2.36,2.36,0,0,1,479.59,253.31Zm-51.43-3h50.79V180.45H428.15Z"/><path class="cls-5" d="M479.59,245.12H427.5a2.36,2.36,0,0,1-2.35-2.36V188.48h3v53.64h50.79V188.48h3v54.28A2.36,2.36,0,0,1,479.59,245.12Z"/><rect class="cls-7" x="435.06" y="189.91" width="36.98" height="9.37"/><rect class="cls-5" x="433.53" y="207.36" width="6.77" height="3"/><rect class="cls-5" x="444.62" y="207.36" width="6.77" height="3"/><rect class="cls-5" x="455.7" y="207.36" width="6.77" height="3"/><rect class="cls-5" x="466.79" y="207.36" width="6.77" height="3"/><rect class="cls-5" x="433.53" y="215.73" width="6.77" height="3"/><rect class="cls-5" x="444.62" y="215.73" width="6.77" height="3"/><rect class="cls-5" x="455.7" y="215.73" width="6.77" height="3"/><rect class="cls-5" x="466.79" y="215.73" width="6.77" height="3"/><rect class="cls-5" x="433.53" y="224.09" width="6.77" height="3"/><rect class="cls-5" x="444.62" y="224.09" width="6.77" height="3"/><rect class="cls-5" x="455.7" y="224.09" width="6.77" height="3"/><rect class="cls-5" x="466.79" y="224.09" width="6.77" height="3"/><rect class="cls-5" x="433.53" y="232.46" width="6.77" height="3"/><rect class="cls-5" x="444.62" y="232.46" width="6.77" height="3"/><rect class="cls-5" x="455.7" y="232.46" width="6.77" height="3"/><rect class="cls-5" x="466.79" y="232.46" width="6.77" height="3"/><path class="cls-7" d="M579.55,133.15l-2.44-15-13.56,1.05a41.36,41.36,0,0,0-7.49-12.81l7.22-12-12.36-8.91L542.1,95.75A41.3,41.3,0,0,0,527.74,92l-3.38-13.6-15,2.43,1.05,13.56a41.21,41.21,0,0,0-12.81,7.49l-12-7.22L476.63,107,487,115.84a41.26,41.26,0,0,0-3.75,14.35l-13.6,3.38,2.43,15,13.56-1.05a41.19,41.19,0,0,0,7.49,12.81l-7.22,12,12.36,8.92L507.06,171a41.18,41.18,0,0,0,14.35,3.75l3.38,13.6,15-2.44-1.05-13.55a41.3,41.3,0,0,0,12.81-7.49l12,7.23,8.92-12.36-10.33-8.84A41.28,41.28,0,0,0,566,136.53Z"/><rect class="cls-5" x="523.28" y="103.94" width="3" height="5.93"/><rect class="cls-5" x="534.61" y="108.83" width="5.93" height="3" transform="translate(173.21 520.68) rotate(-60)"/><rect class="cls-5" x="543.97" y="118.19" width="5.93" height="3" transform="translate(13.44 289.54) rotate(-30)"/><rect class="cls-5" x="547.39" y="130.98" width="5.93" height="3"/><rect class="cls-5" x="545.43" y="142.3" width="3" height="5.93" transform="translate(147.68 546.3) rotate(-60)"/><rect class="cls-5" x="536.07" y="151.66" width="3" height="5.93" transform="translate(-5.3 289.46) rotate(-30)"/><rect class="cls-5" x="523.28" y="155.08" width="3" height="5.93"/><rect class="cls-5" x="509.03" y="153.12" width="5.93" height="3" transform="translate(121.96 520.58) rotate(-59.98)"/><rect class="cls-5" x="499.67" y="143.76" width="5.93" height="3" transform="translate(-5.3 270.74) rotate(-30)"/><rect class="cls-5" x="496.25" y="130.98" width="5.93" height="3"/><rect class="cls-5" x="501.14" y="116.73" width="3" height="5.93" transform="translate(147.59 495.07) rotate(-59.99)"/><rect class="cls-5" x="510.5" y="107.37" width="3" height="5.93" transform="translate(13.35 270.52) rotate(-29.97)"/><polygon class="cls-3" points="525.13 133.06 513.45 125.75 515.04 123.2 524.67 129.23 537.31 116.21 539.47 118.3 525.13 133.06"/><path class="cls-5" d="M579.16,91.63a7.57,7.57,0,1,1,7.57-7.57A7.58,7.58,0,0,1,579.16,91.63Zm0-12.14a4.57,4.57,0,1,0,4.57,4.57A4.57,4.57,0,0,0,579.16,79.49Z"/><rect class="cls-5" x="577.66" y="70.94" width="3" height="5.74"/><rect class="cls-5" x="577.66" y="91.43" width="3" height="5.74"/><rect class="cls-5" x="568.78" y="76.06" width="3" height="5.74" transform="translate(216.84 533.39) rotate(-60.01)"/><rect class="cls-5" x="586.53" y="86.31" width="3" height="5.74" transform="translate(216.79 553.85) rotate(-60)"/><rect class="cls-5" x="567.41" y="87.68" width="5.74" height="3" transform="matrix(0.87, -0.5, 0.5, 0.87, 31.79, 297.04)"/><rect class="cls-5" x="585.16" y="77.43" width="5.74" height="3" transform="translate(39.33 304.64) rotate(-30)"/><circle class="cls-3" cx="448.32" cy="103.97" r="16.91"/><path class="cls-5" d="M448.32,109.43a7.44,7.44,0,1,1,7.44-7.44A7.45,7.45,0,0,1,448.32,109.43Zm0-11.88a4.44,4.44,0,1,0,4.44,4.44A4.44,4.44,0,0,0,448.32,97.55Z"/><path class="cls-5" d="M448.32,120.65a16.6,16.6,0,0,1-11.42-4.54l-.47-.44v-1.13a7.45,7.45,0,0,1,7.44-7.44h8.91a7.45,7.45,0,0,1,7.44,7.44v1.13l-.47.44A16.61,16.61,0,0,1,448.32,120.65Zm-8.89-6.3a13.62,13.62,0,0,0,17.78,0,4.44,4.44,0,0,0-4.44-4.26h-8.91A4.45,4.45,0,0,0,439.43,114.35Z"/><path class="cls-5" d="M224.24,211.4H223v-3h1.25Zm-5.25,0h-4v-3h4Zm-8,0h-4v-3h4Zm-8,0h-4v-3h4Z"/><path class="cls-5" d="M174.88,219.47H168.5c-10.38,0-17.08-7.84-17.08-20V183h3V199.5c0,12.51,7.28,17,14.08,17h6.38Z"/><path class="cls-5" d="M254.73,219.47h-6.45v-3h6.45c10.4,0,14.09-9.2,14.09-17.09V182.85h3v16.52C271.82,211.58,265.11,219.47,254.73,219.47Z"/><rect class="cls-5" x="186.5" y="177.85" width="3" height="28.48"/><rect class="cls-5" x="176.49" y="177.85" width="3" height="28.48"/><rect class="cls-5" x="186.5" y="229.42" width="3" height="28.48"/><rect class="cls-5" x="176.49" y="229.42" width="3" height="28.48"/><path class="cls-5" d="M189,231.48H177a3.52,3.52,0,0,1-3.52-3.52V209a3.52,3.52,0,0,1,3.52-3.52h12a3.52,3.52,0,0,1,3.52,3.52v19A3.52,3.52,0,0,1,189,231.48Zm-12-23a.52.52,0,0,0-.52.52v19a.51.51,0,0,0,.52.52h12a.52.52,0,0,0,.52-.52V209a.52.52,0,0,0-.52-.52Z"/><rect class="cls-5" x="181.49" y="221.97" width="3" height="6.76"/><rect class="cls-5" x="243.75" y="177.85" width="3" height="28.48"/><rect class="cls-5" x="233.73" y="177.85" width="3" height="28.48"/><rect class="cls-5" x="243.75" y="229.42" width="3" height="28.48"/><rect class="cls-5" x="233.73" y="229.42" width="3" height="28.48"/><path class="cls-5" d="M246.24,231.48h-12a3.52,3.52,0,0,1-3.52-3.52V209a3.52,3.52,0,0,1,3.52-3.52h12a3.52,3.52,0,0,1,3.52,3.52v19A3.52,3.52,0,0,1,246.24,231.48Zm-12-23a.52.52,0,0,0-.52.52v19a.51.51,0,0,0,.52.52h12a.51.51,0,0,0,.52-.52V209a.52.52,0,0,0-.52-.52Z"/><rect class="cls-5" x="238.74" y="221.97" width="3" height="6.76"/><rect class="cls-5" x="190.94" y="216.47" width="41.35" height="3"/><path class="cls-5" d="M272,260.28H151.27V176H272Zm-117.69-3H269V179H154.27Z"/><polygon class="cls-5" points="228.89 171.61 225.89 171.61 225.89 165.01 197.34 165.01 197.34 171.61 194.34 171.61 194.34 162.01 228.89 162.01 228.89 171.61"/><path class="cls-11" d="M254.17,75.59"/><path class="cls-3" d="M128.42,101.81a41.95,41.95,0,0,1,32,69.12l9.78,18.55L152.4,178.2a42,42,0,1,1-24-76.39Z"/><polygon class="cls-5" points="134.45 168.81 131.45 168.81 131.45 141.63 113.06 141.63 113.06 138.63 134.45 138.63 134.45 168.81"/><polygon class="cls-5" points="141.28 170.31 119.89 170.31 119.89 140.13 122.89 140.13 122.89 167.31 141.28 167.31 141.28 170.31"/><path class="cls-5" d="M127.17,131.69a8.21,8.21,0,1,1,8.21-8.21A8.22,8.22,0,0,1,127.17,131.69Zm0-13.42a5.21,5.21,0,1,0,5.21,5.21A5.22,5.22,0,0,0,127.17,118.27Z"/><path class="cls-7" d="M566.41,281.05a66.5,66.5,0,0,1-8.23-90.4l14.32,12.78a47.37,47.37,0,0,0,70.34,62.8L657.16,279a66.5,66.5,0,0,1-90.75,2Z"/><path class="cls-4" d="M563.6,184.5a66,66,0,0,1,38.7-19l1.09,19.17a47,47,0,0,0-25.49,12.62Z"/><path class="cls-5" d="M662.85,275.13l-16.52-14.75.84-1.1a45.87,45.87,0,0,0-35.63-73.69l-1.4,0-1.25-22.1h1.92a68,68,0,0,1,53,110.43ZM650.39,260l12.08,10.79a65,65,0,0,0-50.4-104.3l.91,16.16A48.87,48.87,0,0,1,650.39,260Z"/><polygon class="cls-12" points="537.02 231.5 531.01 243.54 496.9 243.54 502.93 231.5 537.02 231.5"/><polygon class="cls-12" points="537.02 231.5 531 219.46 496.9 219.46 502.93 231.5 537.02 231.5"/><path class="cls-5" d="M494.47,245,502,230h37.45l-7.51,15Zm9.38-12-4.52,9h30.75l4.52-9Z"/><path class="cls-5" d="M539.45,233H502l-7.52-15h37.46Zm-35.6-3H534.6l-4.52-9H499.33Z"/><path class="cls-5" d="M613.34,232.9H497.85a1.5,1.5,0,1,1,0-3H613.34a1.5,1.5,0,1,1,0,3Z"/><rect class="cls-5" x="556.01" y="276.56" width="16.48" height="3"/><rect class="cls-5" x="556.01" y="285.77" width="16.48" height="3"/><rect class="cls-5" x="558.27" y="294.99" width="14.22" height="3"/><rect class="cls-5" x="567.32" y="304.2" width="5.17" height="3"/><rect class="cls-5" x="576.87" y="267.34" width="16.48" height="3"/><rect class="cls-5" x="576.87" y="276.56" width="16.48" height="3"/><rect class="cls-5" x="576.87" y="285.77" width="16.48" height="3"/><rect class="cls-5" x="576.87" y="294.99" width="16.48" height="3"/><rect class="cls-5" x="576.87" y="304.2" width="16.48" height="3"/><rect class="cls-5" x="576.87" y="258.34" width="16.48" height="3"/><rect class="cls-5" x="598.29" y="267.34" width="16.48" height="3"/><rect class="cls-5" x="598.29" y="276.56" width="16.48" height="3"/><rect class="cls-5" x="598.29" y="285.77" width="16.48" height="3"/><rect class="cls-5" x="598.29" y="294.99" width="16.48" height="3"/><rect class="cls-5" x="598.29" y="304.2" width="16.48" height="3"/><rect class="cls-5" x="598.29" y="239.91" width="16.48" height="3"/><rect class="cls-5" x="598.29" y="249.12" width="16.48" height="3"/><rect class="cls-5" x="598.29" y="258.34" width="16.48" height="3"/><rect class="cls-5" x="534.79" y="294.99" width="15.35" height="3"/><rect class="cls-5" x="534.79" y="304.2" width="7.94" height="3"/><path class="cls-5" d="M554,322.39a14,14,0,1,1,14-14A14,14,0,0,1,554,322.39Zm0-24.93a11,11,0,1,0,11,11A11,11,0,0,0,554,297.46Z"/><rect class="cls-5" x="552.52" y="302.68" width="3" height="11.5"/><path class="cls-3" d="M707.49,189.77V172.19a9.6,9.6,0,0,1,8.49-9.54c2.62,0,85.18,0,89.46,0a9.61,9.61,0,0,0-8.5,9.54V291.39h0l0,1.61a9.63,9.63,0,0,1-8.52,9.54c-2.62,0-85.19,0-89.46,0a9.61,9.61,0,0,0,8.5-9.54V290.8h0v-101Z"/><path class="cls-7" d="M796.94,182.65V172.19a9.61,9.61,0,0,1,19.22,0v10.45Z"/><path class="cls-7" d="M779.2,288.16V293a9.61,9.61,0,0,0,8.5,9.54c-4.27,0-86.84,0-89.46,0a9.6,9.6,0,0,1-8.49-9.54v-4.83Z"/><rect class="cls-5" x="743.97" y="211.48" width="3" height="23.72"/><rect class="cls-5" x="732.94" y="220.15" width="3" height="14.86"/><rect class="cls-5" x="721.92" y="227.2" width="3" height="8"/><rect class="cls-5" x="743.97" y="239.28" width="3" height="4.45"/><rect class="cls-5" x="732.94" y="239.28" width="3" height="4.45"/><rect class="cls-5" x="721.92" y="239.28" width="3" height="4.45"/><rect class="cls-5" x="777.05" y="204.99" width="3" height="30.21"/><rect class="cls-5" x="766.02" y="227.34" width="3" height="7.86"/><rect class="cls-5" x="755" y="220.37" width="3" height="14.83"/><rect class="cls-5" x="777.05" y="239.28" width="3" height="4.45"/><rect class="cls-5" x="766.02" y="239.28" width="3" height="4.45"/><rect class="cls-5" x="755" y="239.28" width="3" height="4.45"/><rect class="cls-5" x="810.13" y="211.48" width="3" height="23.72"/><rect class="cls-5" x="799.1" y="218.42" width="3" height="16.45"/><rect class="cls-5" x="788.08" y="210.67" width="3" height="24.53"/><rect class="cls-5" x="810.13" y="239.28" width="3" height="4.45"/><rect class="cls-5" x="799.1" y="239.28" width="3" height="4.45"/><rect class="cls-5" x="788.08" y="239.28" width="3" height="4.45"/><rect class="cls-5" x="720.48" y="179.12" width="22.38" height="3"/><rect class="cls-5" x="720.07" y="188.84" width="53.14" height="3"/><path class="cls-13" d="M181.75,337.11a27.3,27.3,0,0,1-18.14-6.83l19-19.05H209.2a27.5,27.5,0,0,1-27.45,25.88Z"/><path class="cls-7" d="M183.54,307V282.17A27.31,27.31,0,0,1,209.12,307Z"/><path class="cls-3" d="M181.75,337.11a27.3,27.3,0,0,1-18.14-6.83l19-19.05H209.2a27.5,27.5,0,0,1-27.45,25.88Z"/><path class="cls-5" d="M181.64,344.36a34.68,34.68,0,0,1-23-8.75l2-2.24a31.73,31.73,0,1,0,22.59-55.42l.14-3a34.73,34.73,0,0,1-1.67,69.42Z"/><path class="cls-5" d="M176.19,278.16v29.21l-20.47,20.9a31.93,31.93,0,0,1,20.47-50.11Zm3-3.38a34.93,34.93,0,0,0-23.7,58l23.7-24.19V274.78Z"/><path class="cls-3" d="M104.63,305.39V280.51a27.31,27.31,0,0,1,25.58,24.88Z"/><path class="cls-5" d="M126,333.71l-2-2.22a31.73,31.73,0,0,0-19.77-55.21l.14-3A34.73,34.73,0,0,1,126,333.71Z"/><path class="cls-5" d="M103,342.67a34.73,34.73,0,0,1-4.8-69.13l1.71-.24v35.21l21.94,28.65-1.48.85A34.69,34.69,0,0,1,103,342.67Zm-6.1-65.88a31.73,31.73,0,1,0,20.46,59.45L96.85,309.53Z"/><path class="cls-4" d="M107.43,309.57c3.3,4.25,8.91,11.47,14.26,18.38.2-.18.4-.36.6-.55a27.27,27.27,0,0,0,8-17.83Z"/><path class="cls-3" d="M204.66,134.83l8.38-9.41,2.22-2.5a32.34,32.34,0,1,1,46.68,0l2.2,2.47,8.39,9.43.25-.25a48.21,48.21,0,1,0-68.12.23Z"/><path class="cls-4" d="M261.93,122.95l2.2,2.47,8.39,9.43.26-.25a48.1,48.1,0,0,0,7.94-57.5l-9.65,5.45-4.19,2.37a32.22,32.22,0,0,1-4.94,38Z"/><path class="cls-14" d="M275.06,137.07"/><path class="cls-3" d="M239.53,55.41v0Z"/><rect class="cls-5" x="238.03" y="55.41" width="3" height="8.24"/><path class="cls-3" d="M217.13,60.82,221.25,68Z"/><rect class="cls-5" x="217.69" y="60.27" width="3" height="8.24" transform="matrix(0.87, -0.5, 0.5, 0.87, -2.86, 118.11)"/><path class="cls-3" d="M200.44,76.71l7.13,4.12Z"/><rect class="cls-5" x="202.51" y="74.65" width="3" height="8.24" transform="translate(33.83 216.12) rotate(-60.02)"/><path class="cls-3" d="M193.93,98.81h0Z"/><rect class="cls-5" x="193.93" y="97.31" width="8.24" height="3"/><path class="cls-3" d="M199.34,121.21l7.14-4.12Z"/><rect class="cls-5" x="198.79" y="117.65" width="8.24" height="3" transform="matrix(0.87, -0.5, 0.5, 0.87, -32.39, 117.4)"/><path class="cls-3" d="M276.42,123.11,269.27,119Z"/><rect class="cls-5" x="271.34" y="116.93" width="3" height="8.24" transform="translate(31.68 296.93) rotate(-60.03)"/><path class="cls-3" d="M282.92,101h0Z"/><rect class="cls-5" x="274.68" y="99.51" width="8.24" height="3"/><path class="cls-3" d="M277.51,78.61l-7.14,4.12Z"/><rect class="cls-5" x="269.82" y="79.17" width="8.24" height="3" transform="translate(-3.63 147.8) rotate(-30)"/><path class="cls-3" d="M261,87.08l-16.3,9.41Z"/><rect class="cls-5" x="243.43" y="90.29" width="18.83" height="3" transform="translate(-12.01 138.74) rotate(-30)"/><path class="cls-3" d="M261.63,61.92l-4.12,7.14Z"/><rect class="cls-5" x="255.45" y="63.99" width="8.24" height="3" transform="translate(73.11 257.58) rotate(-60.01)"/><path class="cls-3" d="M243.32,105.28a6.62,6.62,0,1,1,1.94-4.68A6.61,6.61,0,0,1,243.32,105.28Z"/><path class="cls-5" d="M238.62,108.74h0a8.14,8.14,0,0,1-8.13-8.14,8.13,8.13,0,1,1,8.14,8.14Zm0-13.28a5.15,5.15,0,0,0-5.14,5.14,5.13,5.13,0,1,0,5.14-5.14Z"/><path class="cls-5" d="M831.63,345.58l-1.25-1.89c-.73-1.11-18-27.33-18-37.46a19.22,19.22,0,0,1,38.45,0c0,10.13-17.24,36.35-18,37.46Zm0-55.58a16.24,16.24,0,0,0-16.22,16.22c0,7.07,10.75,25.32,16.22,33.88,5.48-8.56,16.22-26.81,16.22-33.88A16.24,16.24,0,0,0,831.63,290Z"/><circle class="cls-3" cx="831.63" cy="307.21" r="5.24"/><rect class="cls-5" x="302.14" y="268.99" width="39.5" height="3" transform="translate(-81.3 389.71) rotate(-56.51)"/><path class="cls-5" d="M312,271.89a6.25,6.25,0,0,1-6.25-6.24v-6.47a6.25,6.25,0,0,1,12.49,0v6.47A6.25,6.25,0,0,1,312,271.89Zm0-16a3.25,3.25,0,0,0-3.25,3.24v6.47a3.25,3.25,0,0,0,6.49,0v-6.47A3.25,3.25,0,0,0,312,255.94Z"/><path class="cls-5" d="M331.8,288a6.25,6.25,0,0,1-6.25-6.24v-6.47a6.25,6.25,0,0,1,12.49,0v6.47A6.25,6.25,0,0,1,331.8,288Zm0-16a3.25,3.25,0,0,0-3.25,3.24v6.47a3.25,3.25,0,0,0,6.49,0v-6.47A3.25,3.25,0,0,0,331.8,272.09Z"/><path class="cls-15" d="M481.74,83.89a39.13,39.13,0,1,1,39.13-39.13A39.18,39.18,0,0,1,481.74,83.89Zm0-75.26a36.13,36.13,0,1,0,36.13,36.13A36.17,36.17,0,0,0,481.74,8.63Z"/><path class="cls-15" d="M481.74,83.89c-12.83,0-23.27-17.55-23.27-39.13S468.91,5.63,481.74,5.63,505,23.18,505,44.76,494.56,83.89,481.74,83.89Zm0-75.26c-11.18,0-20.27,16.21-20.27,36.13s9.09,36.13,20.27,36.13S502,64.68,502,44.76,492.91,8.63,481.74,8.63Z"/><path class="cls-15" d="M481.74,83.89h-1.5V5.63h1.5a39.13,39.13,0,1,1,0,78.26Zm1.5-75.23v72.2a36.13,36.13,0,0,0,0-72.2Z"/><path class="cls-15" d="M518,59.52H445.52l-.37-1a38.66,38.66,0,0,1,0-27.59l.37-1H518l.37,1a38.6,38.6,0,0,1,0,27.59Zm-70.35-3h68.26a35.54,35.54,0,0,0,0-23.53H447.61a35.58,35.58,0,0,0,0,23.53Z"/></g></g></g></svg>