<svg xmlns="http://www.w3.org/2000/svg" viewBox="-7345.038 -18722.078 137.146 205">
  <defs>
    <style>
      .cls-1 {
        fill: #fff;
      }
    </style>
  </defs>
  <g id="Group_3168" data-name="Group 3168" transform="translate(4871.294 -4450.845)">
    <path id="Path_27" data-name="Path 27" class="cls-1" d="M292.52,175.312H198.742V34.325H292.52V64.731h11.2V24.083A14.958,14.958,0,0,0,288.839,9.2H202.583A14.855,14.855,0,0,0,187.7,24.083V199.316A14.958,14.958,0,0,0,202.583,214.2h86.256a14.958,14.958,0,0,0,14.883-14.883V133.544h-11.2Zm-13.6-156.83a3.841,3.841,0,1,1-3.841,3.841A4.006,4.006,0,0,1,278.917,18.482Zm-53.29,1.44h40.008v4.321H225.627ZM263.875,198.2H227.388v-11.2h36.487Z" transform="translate(-12404.032 -14280.434)"/>
    <path id="Path_28" data-name="Path 28" class="cls-1" d="M297.335,47.2H226.761a7.058,7.058,0,0,0-7.361,7.361V96.809c0,4.321,3.041,8,7.361,8h6.721l-8.322,23.845,28.966-23.845h43.208c4.321,0,8.482-3.681,8.482-8V54.561C305.816,50.241,301.656,47.2,297.335,47.2ZM226.921,65.764H230.6V86.888h-3.681Zm9.442,30.726v2.08h-5.921a3.417,3.417,0,0,1-3.521-3.361V89.768h3.841v3.521a1.776,1.776,0,0,0,1.76,1.76h3.841Zm0-40.808v2.08h-3.841a1.776,1.776,0,0,0-1.76,1.76v3.521h-3.841v-5.6a3.417,3.417,0,0,1,3.521-3.361h5.921v1.6ZM248.846,98.57h-9.282V95.049h9.282Zm0-40.808h-9.282V54.241h9.282ZM261.488,98.57h-9.282V95.049h9.282Zm0-40.808h-9.282V54.241h9.282Zm12.8,40.808h-9.282V95.049h9.282Zm0-40.808h-9.282V54.241h9.282ZM286.453,98.57h-9.282V95.049h9.282Zm0-40.808h-9.282V54.241h9.282Zm12.482,33.446v4a3.417,3.417,0,0,1-3.521,3.361h-5.921V95.049h3.841a1.776,1.776,0,0,0,1.76-1.76V89.608h3.841v1.6Zm0-4.161h-3.681V65.764h3.681Zm0-27.525v3.361h-3.841V59.842c0-1.28-.16-2.24-1.76-2.24h-3.841V54.081h6.081a3.488,3.488,0,0,1,3.361,3.361v2.08Z" transform="translate(-12385.003 -14257.621)"/>
  </g>
</svg>
