<svg xmlns="http://www.w3.org/2000/svg" viewBox="-7374.688 -18710.305 181.557 181.207">
  <defs>
    <style>
      .cls-1 {
        fill: #fff;
      }

      .cls-2 {
        fill: none;
        stroke: #fff;
        stroke-miterlimit: 10;
        stroke-width: 0.433px;
      }
    </style>
  </defs>
  <g id="Group_3150" data-name="Group 3150" transform="translate(-7374.688 -18710.305)">
    <path id="Path_232" data-name="Path 232" class="cls-1" d="M98.179,22.039h3.148V6.3A6.271,6.271,0,0,0,95.03,0H63.2a6.271,6.271,0,0,0-6.3,6.3V38.48a6.271,6.271,0,0,0,6.3,6.3H79.289v-3.5A18.889,18.889,0,0,1,98.179,22.039Z" transform="translate(-56.55)"/>
    <path id="Path_233" data-name="Path 233" class="cls-1" d="M63.1,19.4a6.271,6.271,0,0,0-6.3,6.3V57.53a6.271,6.271,0,0,0,6.3,6.3H79.189V19.4Z" transform="translate(-56.8 48.465)"/>
    <path id="Path_234" data-name="Path 234" class="cls-1" d="M98.8,60.789H96V77.23a6.271,6.271,0,0,0,6.3,6.3H134.13a6.271,6.271,0,0,0,6.3-6.3V45.4a6.271,6.271,0,0,0-6.3-6.3H117.689v3.148A18.739,18.739,0,0,1,98.8,60.789Z" transform="translate(41.13 97.68)"/>
    <path id="Path_235" data-name="Path 235" class="cls-1" d="M76.3,61.492a6.271,6.271,0,0,0,6.3,6.3H114.43a6.271,6.271,0,0,0,6.3-6.3V45.4H76.3Z" transform="translate(-8.085 113.419)"/>
    <path id="Path_236" data-name="Path 236" class="cls-1" d="M79.189,42.148V39H63.1a6.271,6.271,0,0,0-6.3,6.3V77.48a6.271,6.271,0,0,0,6.3,6.3H94.93a6.271,6.271,0,0,0,6.3-6.3V61.389H98.079C87.934,61.039,79.189,52.643,79.189,42.148Z" transform="translate(-56.8 97.43)"/>
    <path id="Path_237" data-name="Path 237" class="cls-1" d="M117.689,41.279v3.5H134.13a6.271,6.271,0,0,0,6.3-6.3V6.3a6.271,6.271,0,0,0-6.3-6.3H102.3A6.271,6.271,0,0,0,96,6.3V22.039h2.8A19.112,19.112,0,0,1,117.689,41.279Z" transform="translate(41.13)"/>
    <path id="Path_238" data-name="Path 238" class="cls-1" d="M118.642,63.927a6.271,6.271,0,0,0,6.3-6.3V25.8a6.271,6.271,0,0,0-6.3-6.3H102.2V64.277h16.442Z" transform="translate(56.619 48.715)"/>
    <path id="Path_239" data-name="Path 239" class="cls-1" d="M120.827,6.3a6.271,6.271,0,0,0-6.3-6.3H82.7a6.271,6.271,0,0,0-6.3,6.3V22.039h44.777V6.3Z" transform="translate(-7.835)"/>
    <path id="Path_240" data-name="Path 240" class="cls-2" d="M183.738,52.127H199.48V29.038H183.738a6.271,6.271,0,0,1-6.3-6.3V6.3H153.654V22.742a6.271,6.271,0,0,1-6.3,6.3H115.523a6.271,6.271,0,0,1-6.3-6.3V6.3H85.789V22.742a6.271,6.271,0,0,1-6.3,6.3H63.4V52.127H79.492a6.271,6.271,0,0,1,6.3,6.3V90.257a6.271,6.271,0,0,1-6.3,6.3H63.4v24.138H79.492a6.271,6.271,0,0,1,6.3,6.3V142.73h23.438V126.988a6.271,6.271,0,0,1,6.3-6.3h31.834a6.271,6.271,0,0,1,6.3,6.3V142.73h23.788V126.988a6.271,6.271,0,0,1,6.3-6.3H199.48V96.9H183.738a6.271,6.271,0,0,1-6.3-6.3V58.773A6.357,6.357,0,0,1,183.738,52.127ZM153.3,89.907a6.271,6.271,0,0,1-6.3,6.3H115.173a6.271,6.271,0,0,1-6.3-6.3V58.073a6.271,6.271,0,0,1,6.3-6.3h31.834a6.271,6.271,0,0,1,6.3,6.3Z" transform="translate(-40.312 15.739)"/>
  </g>
</svg>
