<svg xmlns="http://www.w3.org/2000/svg" viewBox="-7413.47 -18710.305 259.465 181.057">
  <defs>
    <style>
      .cls-1 {
        fill: #fff;
      }

      .cls-2 {
        fill: #dbdbdb;
      }
    </style>
  </defs>
  <g id="Group_3169" data-name="Group 3169" transform="translate(-8015 -19407)">
    <path id="Path_2297" data-name="Path 2297" class="cls-1" d="M260.958,91.694c-35.825,50.875-11.235,96.875,4.452,117.861,4.664-20.774,10.811-46.212,18.655-68.894,17.171-49.6,51.3-74.829,51.3-74.829s-43.032,42.4-51.512,157.713c71.226,12.295,88.609-44.092,76.95-99.207-7-33.069,26.074-79.7,26.074-79.7S298.479,38.063,260.958,91.694Z" transform="translate(474.119 652.314)"/>
    <path id="Path_2298" data-name="Path 2298" class="cls-2" d="M231.656,82.744s31.162,11.235,55.116,44.516c.636,1.06,1.484,2.12,2.12,3.18a99.894,99.894,0,0,1,4.452-44.516c-.212,0-.212-.212-.424-.212-40.065-31.585-104.72-7-104.72-7s35.189,27.345,37.309,53.631c3.6,43.668,29.254,82.036,79.706,56.811C273.205,104.79,231.656,82.744,231.656,82.744Z" transform="translate(413.33 680.559)"/>
  </g>
</svg>
