<svg xmlns="http://www.w3.org/2000/svg" viewBox="-6823.383 -19149.633 258.465 168.652">
  <defs>
    <style>
      .cls-1 {
        fill: #bababa;
      }

      .cls-2, .cls-4 {
        fill: #fff;
      }

      .cls-3 {
        fill: #cfcfcf;
      }

      .cls-4 {
        opacity: 0.5;
      }
    </style>
  </defs>
  <g id="Group_3160" data-name="Group 3160" transform="translate(-26.383 -192.633)">
    <path id="Subtraction_9" data-name="Subtraction 9" class="cls-1" d="M88.134,83.067H48.213V75.384l.051-.046V34.905h-.051v-.512a7.462,7.462,0,0,0-2.559-6.244c-1.774-1.46-5.407-2.2-10.8-2.2A120.552,120.552,0,0,0,17.3,27.28c-3.791.561-7.9,1.61-11.528,2.536-2.06.526-4,1.022-5.771,1.4V6.142C.76,5.93,1.569,5.7,2.42,5.457A126.5,126.5,0,0,1,19.244,1.535,157.306,157.306,0,0,1,41.406,0c7.82,0,14.363.74,19.449,2.2A28.408,28.408,0,0,1,73.292,8.854a24.035,24.035,0,0,1,6.551,11.055,55.574,55.574,0,0,1,1.894,15.354v23.9h6.4Z" transform="translate(-6626.668 -18913.998)"/>
    <path id="Subtraction_7" data-name="Subtraction 7" class="cls-2" d="M39.922,113.418H0V89.465H6.4V23.9H0V0H39.922V59.165H43.4L61.469,32.346h.051L25.642,85.575l14.28-.123Z" transform="translate(-6797 -18941.227)"/>
    <path id="Subtraction_8" data-name="Subtraction 8" class="cls-3" d="M37,115.414a146.481,146.481,0,0,1-20.319-1.382A111.845,111.845,0,0,1,0,110.6V86.7c5.437.994,10.569,1.7,15.252,2.1,4.675.448,10.032.665,16.378.665,5.241,0,9.108-.787,11.823-2.405,2.652-1.581,3.941-4.795,3.941-9.827V73.918L71.552,55.583H47.394V47.8h-.051V23.9H39.461V0H80.867V72.882c0,14.52-3.7,25.351-11,32.193C62.6,111.936,51.541,115.414,37,115.414Z" transform="translate(-6703.901 -18903.762)"/>
    <path id="Path_2249" data-name="Path 2249" class="cls-2" d="M246.946,55.8c-8.65,12.284-2.713,23.39,1.075,28.457a159.477,159.477,0,0,1,4.5-16.634A40.243,40.243,0,0,1,264.91,49.559S254.521,59.8,252.473,87.638c17.2,2.969,21.394-10.646,18.579-23.953-1.689-7.984,6.3-19.244,6.3-19.244S256,42.855,246.946,55.8Z" transform="translate(-6915.379 -19001.381)"/>
    <path id="Path_2250" data-name="Path 2250" class="cls-4" d="M198.692,72.773A31.431,31.431,0,0,1,212,83.521c.154.256.358.512.512.768a24.119,24.119,0,0,1,1.075-10.748c-.051,0-.051-.051-.1-.051C203.81,65.863,188.2,71.8,188.2,71.8s8.5,6.6,9.008,12.949c.87,10.543,7.063,19.807,19.244,13.717C208.724,78.1,198.692,72.773,198.692,72.773Z" transform="translate(-6888.877 -19013.691)"/>
    <path id="Path_2264" data-name="Path 2264" class="cls-1" d="M50.1,191.629,85.978,138.4h30.76v23.9H110.75l-12.386,13.87,13.973,19.4h6.3v23.9H82.907l-15-28" transform="translate(-6821.458 -19047.279)"/>
    <path id="Path_2265" data-name="Path 2265" class="cls-2" d="M222.8,222.308c-.614.563-.87.768-1.28,1.126a31.352,31.352,0,0,1-5.169,3.787,32.319,32.319,0,0,1-6.7,2.969,28.229,28.229,0,0,1-8.752,1.228c-7.984,0-14.28-2.866-18.886-8.547S175.1,208.284,175.1,196.1V172.2h-6.4V148.3h39.921v47.8c0,3.327.717,5.681,2.1,7.165a8.6,8.6,0,0,0,6.346,2.2,9.631,9.631,0,0,0,5.732-1.535h24.209Z" transform="translate(-6879.357 -19052.113)"/>
    <path id="Path_2266" data-name="Path 2266" class="cls-2" d="M377.549,196.6c-17.5.051-30.555,2.406-39.051,7.063q-12.9,7.063-12.9,20.933c0,7.37,2.354,13,7.165,16.89q7.14,5.835,19.807,5.835a33.328,33.328,0,0,0,9.417-1.228,37.008,37.008,0,0,0,7.268-2.969,58.759,58.759,0,0,0,8.291-6.091Z" transform="translate(-6955.954 -19075.693)"/>
  </g>
</svg>
