<svg xmlns="http://www.w3.org/2000/svg" viewBox="-6849.281 -19343.305 300.353 128.736">
  <defs>
    <style>
      .cls-1 {
        fill: #fff;
      }
    </style>
  </defs>
  <g id="Group_3151" data-name="Group 3151" transform="translate(5586.719 -5061.304)">
    <g id="Group_3166" data-name="Group 3166" transform="translate(2)">
      <path id="Path_27" data-name="Path 27" class="cls-1" d="M247.839,104.5h-53.8V23.615h53.8V41.06h6.427V17.739A8.582,8.582,0,0,0,245.727,9.2H196.239a8.523,8.523,0,0,0-8.539,8.539V118.276a8.582,8.582,0,0,0,8.539,8.539h49.488a8.582,8.582,0,0,0,8.539-8.539V80.54h-6.427Zm-7.8-89.979a2.2,2.2,0,1,1-2.2,2.2A2.3,2.3,0,0,1,240.035,14.525Zm-30.574.826h22.954v2.479H209.46ZM231.4,117.634H210.47v-6.427H231.4Z" transform="translate(-12404.032 -14280.434)"/>
      <path id="Path_28" data-name="Path 28" class="cls-1" d="M264.114,47.2H223.623a4.049,4.049,0,0,0-4.223,4.223V75.663a4.359,4.359,0,0,0,4.223,4.591h3.856l-4.774,13.68,16.619-13.68h24.79a4.914,4.914,0,0,0,4.866-4.591V51.423C268.98,48.944,266.593,47.2,264.114,47.2Zm-40.4,10.651h2.112V69.97h-2.112Zm5.417,17.629v1.194h-3.4a1.961,1.961,0,0,1-2.02-1.928V71.623h2.2v2.02a1.019,1.019,0,0,0,1.01,1.01h2.2Zm0-23.413V53.26h-2.2a1.019,1.019,0,0,0-1.01,1.01v2.02h-2.2V53.076a1.961,1.961,0,0,1,2.02-1.928h3.4v.918Zm7.162,24.606h-5.325v-2.02h5.325Zm0-23.413h-5.325V51.24h5.325Zm7.253,23.413h-5.325v-2.02h5.325Zm0-23.413h-5.325V51.24h5.325Zm7.345,23.413h-5.325v-2.02h5.325Zm0-23.413h-5.325V51.24h5.325Zm6.978,23.413h-5.325v-2.02h5.325Zm0-23.413h-5.325V51.24h5.325Zm7.162,19.189v2.3a1.961,1.961,0,0,1-2.02,1.928h-3.4v-2.02h2.2a1.019,1.019,0,0,0,1.01-1.01V71.531h2.2v.918Zm0-2.387H262.92V57.851h2.112Zm0-15.792V56.2h-2.2V54.453c0-.735-.092-1.285-1.01-1.285h-2.2v-2.02H263.1a2,2,0,0,1,1.928,1.928V54.27Z" transform="translate(-12406.627 -14283.543)"/>
    </g>
    <path id="Path_29" data-name="Path 29" class="cls-1" d="M36.982,33.471a12.16,12.16,0,0,1-1.17-.7,14.6,14.6,0,0,0-3.043-1.521,11.427,11.427,0,0,0-3.862-.819,11.235,11.235,0,0,0-3.862.7A18.948,18.948,0,0,0,22,32.535a12.16,12.16,0,0,1-1.17.7c-.351,0-1.287-.7-2.809-2.224S15.8,28.556,15.8,28.2a1.012,1.012,0,0,1,.351-.7A15.336,15.336,0,0,1,22,23.991a21.109,21.109,0,0,1,6.9-1.287,18.658,18.658,0,0,1,6.9,1.4,16.607,16.607,0,0,1,5.735,3.628c.234.234.351.468.234.7,0,.351-.7,1.287-2.224,2.692S37.333,33.471,36.982,33.471ZM45.174,25.4a1.663,1.663,0,0,1-.7-.234A39.685,39.685,0,0,0,37.1,20.48a18.941,18.941,0,0,0-7.958-1.521,24.6,24.6,0,0,0-5.032.585,22,22,0,0,0-4.447,1.521c-1.287.585-2.341,1.17-3.394,1.755s-1.755,1.17-2.341,1.521a3.51,3.51,0,0,1-.936.585c-.351,0-1.287-.7-2.692-2.224C8.777,21.183,8.075,20.246,8.075,19.9a1.012,1.012,0,0,1,.351-.7,27.747,27.747,0,0,1,9.6-5.969,31.951,31.951,0,0,1,11.352-2.107A29.289,29.289,0,0,1,40.61,13.459a27.777,27.777,0,0,1,9.48,6.2c.234.234.351.468.234.7,0,.351-.7,1.287-2.224,2.692-1.755,1.638-2.692,2.341-2.926,2.341Zm8.075-7.958a1.663,1.663,0,0,1-.7-.234,39.308,39.308,0,0,0-11-7.139A30.886,30.886,0,0,0,29.141,7.607,33.982,33.982,0,0,0,16.618,9.831,40.542,40.542,0,0,0,5.5,16.735a.86.86,0,0,1-.7.234c-.351,0-1.287-.7-2.692-2.224S0,12.288,0,11.937a1.012,1.012,0,0,1,.351-.7A39.264,39.264,0,0,1,13.693,2.809a42.091,42.091,0,0,1,31.13.351A37.163,37.163,0,0,1,57.93,11.82c.234.234.351.468.234.7,0,.351-.7,1.287-2.224,2.692S53.6,17.438,53.249,17.438Z" transform="translate(-12436 -14282)"/>
    <circle id="Ellipse_2" data-name="Ellipse 2" class="cls-1" cx="5.5" cy="5.5" r="5.5" transform="translate(-12412.478 -14247.359)"/>
    <path id="Path_30" data-name="Path 30" class="cls-1" d="M12.6,85.14v35.812H41.39V45.7H12.6Z" transform="translate(-12433.854 -14274.217)"/>
    <path id="Path_31" data-name="Path 31" class="cls-1" d="M121.464,72.27v-.819a44.314,44.314,0,0,0-1.17-9.245l-10.767.117C110,58.929,110.7,53.78,111.4,48.63c-4.1-2.809-9.245-4.33-15.448-4.33-5.852,0-10.884,1.053-14.98,3.277-4.1,2.107-8.192,5.735-12.171,10.767V45.938H42V121.19H70.907V85.027c0-6.9,1.053-11.586,3.277-14.278a10.329,10.329,0,0,1,8.543-3.979A9.682,9.682,0,0,1,90.1,69.7c1.755,1.99,2.575,5.383,2.575,10.065V121.19h14.161a57.553,57.553,0,0,1,6.2-20.012,70.64,70.64,0,0,1,8.543-12.054V73.441c0-.468-.117-.819-.117-1.17" transform="translate(-12428.847 -14274.455)"/>
    <path id="Path_32" data-name="Path 32" class="cls-1" d="M142.346,101.856c2.692-2.575,4.915-4.681,6.9-6.32s5.852-4.447,11.7-8.426c7.022-4.915,12.522-9.6,16.384-14.044l.585-.585a32.446,32.446,0,0,0,3.277-4.33,33.7,33.7,0,0,0,5.618-18.14,27.983,27.983,0,0,0-4.915-16.15,28.623,28.623,0,0,0-13.342-10.65C162.944,20.987,154.985,19.7,144.8,19.7c-9.714,0-17.321,1.17-22.821,3.628a29.762,29.762,0,0,0-12.756,10.416c-3.043,4.564-5.032,22-6.2,30.077L131.93,63.7c.819-5.852,2.341-18.608,4.681-20.949a13.184,13.184,0,0,1,17.789-.117,10.729,10.729,0,0,1,3.511,8.075c0,2.926-1.17,5.969-3.511,9.245a41.746,41.746,0,0,1-6.9,6.9,5.863,5.863,0,0,0-.936.819c-2.341,1.99-5.149,4.213-8.426,6.554-13.81,10.3-23.289,19.193-28.322,26.683a53.283,53.283,0,0,0-9.011,24.108h86.6V101.856Z" transform="translate(-12418.832 -14278.645)"/>
  </g>
</svg>
