<svg xmlns="http://www.w3.org/2000/svg" viewBox="-6913.519 -19313.223 419.397 91.043">
  <defs>
    <style>
      .cls-1 {
        fill: #fff;
      }

      .cls-2 {
        fill: none;
        stroke: #fff;
        stroke-miterlimit: 10;
        stroke-width: 0.433px;
      }
    </style>
  </defs>
  <g id="Group_3149" data-name="Group 3149" transform="translate(-6971.519 -19368.223)">
    <g id="Group_131" data-name="Group 131" transform="translate(58 55)">
      <path id="Path_232" data-name="Path 232" class="cls-1" d="M77.64,11.073h1.582V3.164A3.151,3.151,0,0,0,76.058,0H60.064A3.15,3.15,0,0,0,56.9,3.164v16.17A3.151,3.151,0,0,0,60.064,22.5h8.085V20.74A9.49,9.49,0,0,1,77.64,11.073Z" transform="translate(-56.724)"/>
      <path id="Path_233" data-name="Path 233" class="cls-1" d="M59.964,19.4A3.15,3.15,0,0,0,56.8,22.564V38.558a3.151,3.151,0,0,0,3.164,3.164h8.085V19.4Z" transform="translate(-56.8 14.697)"/>
      <path id="Path_234" data-name="Path 234" class="cls-1" d="M97.406,50H96v8.261a3.15,3.15,0,0,0,3.164,3.164h15.994a3.151,3.151,0,0,0,3.164-3.164V42.264a3.151,3.151,0,0,0-3.164-3.164H106.9v1.582A9.415,9.415,0,0,1,97.406,50Z" transform="translate(-27.103 29.622)"/>
      <path id="Path_235" data-name="Path 235" class="cls-1" d="M76.3,53.485a3.151,3.151,0,0,0,3.164,3.164H95.458a3.151,3.151,0,0,0,3.164-3.164V45.4H76.3Z" transform="translate(-42.027 34.394)"/>
      <path id="Path_236" data-name="Path 236" class="cls-1" d="M68.049,40.582V39H59.964A3.15,3.15,0,0,0,56.8,42.164v16.17A3.15,3.15,0,0,0,59.964,61.5H75.958a3.151,3.151,0,0,0,3.164-3.164V50.249H77.54A9.839,9.839,0,0,1,68.049,40.582Z" transform="translate(-56.8 29.546)"/>
      <path id="Path_237" data-name="Path 237" class="cls-1" d="M106.9,20.74V22.5h8.261a3.151,3.151,0,0,0,3.164-3.164V3.164A3.15,3.15,0,0,0,115.158,0H99.164A3.151,3.151,0,0,0,96,3.164v7.909h1.406A9.6,9.6,0,0,1,106.9,20.74Z" transform="translate(-27.103)"/>
      <path id="Path_238" data-name="Path 238" class="cls-1" d="M110.461,41.821a3.151,3.151,0,0,0,3.164-3.164V22.664a3.151,3.151,0,0,0-3.164-3.164H102.2V42h8.261Z" transform="translate(-22.406 14.773)"/>
      <path id="Path_239" data-name="Path 239" class="cls-1" d="M98.721,3.164A3.151,3.151,0,0,0,95.558,0H79.564A3.15,3.15,0,0,0,76.4,3.164v7.909H98.9V3.164Z" transform="translate(-41.951)"/>
      <path id="Path_240" data-name="Path 240" class="cls-2" d="M123.861,29.324h7.909v-11.6h-7.909a3.15,3.15,0,0,1-3.164-3.164V6.3H108.746v8.261a3.151,3.151,0,0,1-3.164,3.164H89.588a3.151,3.151,0,0,1-3.164-3.164V6.3H74.649v8.261a3.151,3.151,0,0,1-3.164,3.164H63.4v11.6h8.085a3.151,3.151,0,0,1,3.164,3.164V48.482a3.151,3.151,0,0,1-3.164,3.164H63.4V63.773h8.085a3.151,3.151,0,0,1,3.164,3.164v7.909H86.424V66.937a3.151,3.151,0,0,1,3.164-3.164h15.994a3.151,3.151,0,0,1,3.164,3.164v7.909H120.7V66.937a3.15,3.15,0,0,1,3.164-3.164h7.909V51.822h-7.909a3.15,3.15,0,0,1-3.164-3.164V32.664A3.194,3.194,0,0,1,123.861,29.324ZM108.57,48.306a3.151,3.151,0,0,1-3.164,3.164H89.412a3.151,3.151,0,0,1-3.164-3.164V32.312a3.151,3.151,0,0,1,3.164-3.164h15.994a3.151,3.151,0,0,1,3.164,3.164Z" transform="translate(-51.8 4.773)"/>
    </g>
    <path id="Path_241" data-name="Path 241" class="cls-1" d="M22.5,74.412c-.527-4.042-4.042-5.8-7.909-5.8-8.612,0-11.249,7.909-11.249,14.764S5.976,98.14,14.588,98.14c3.691,0,7.558-1.933,8.261-6.152h3.339c-1.055,5.624-6.152,8.964-11.6,8.964C4.394,100.952,0,92.691,0,83.376S4.394,65.8,14.588,65.8c5.449,0,10.721,2.461,11.249,8.612Z" transform="translate(186.513 6.829)"/>
    <path id="Path_242" data-name="Path 242" class="cls-1" d="M33.015,100.952c-9.667,0-15.115-7.03-15.115-17.576S23.349,65.8,33.015,65.8,48.13,72.83,48.13,83.376,42.682,100.952,33.015,100.952Zm0-2.812c8.436,0,11.776-7.382,11.776-14.764S41.452,68.612,33.015,68.612,21.239,75.994,21.239,83.376,24.579,98.14,33.015,98.14Z" transform="translate(200.074 6.829)"/>
    <path id="Path_243" data-name="Path 243" class="cls-1" d="M39.3,66.2h3.515l18.63,29.7h.176V66.2h2.988V99.946H60.743L42.464,70.77h-.176V99.946H39.3Z" transform="translate(216.286 7.132)"/>
    <path id="Path_244" data-name="Path 244" class="cls-1" d="M80.2,74.412c-.527-4.042-4.042-5.8-7.909-5.8-8.612,0-11.249,7.909-11.249,14.764S63.676,98.14,72.288,98.14c3.691,0,7.558-1.933,8.261-6.152h3.339c-1.055,5.624-6.152,8.964-11.6,8.964-10.194,0-14.588-8.261-14.588-17.576S62.094,65.8,72.288,65.8c5.449,0,10.721,2.461,11.249,8.612Z" transform="translate(230.226 6.829)"/>
    <path id="Path_245" data-name="Path 245" class="cls-1" d="M90.715,100.952c-9.667,0-15.115-7.03-15.115-17.576S81.049,65.8,90.715,65.8s15.115,7.03,15.115,17.576S100.558,100.952,90.715,100.952Zm0-2.812c8.436,0,11.776-7.382,11.776-14.764S99.152,68.612,90.715,68.612,78.939,75.994,78.939,83.376,82.279,98.14,90.715,98.14Z" transform="translate(243.787 6.829)"/>
    <path id="Path_246" data-name="Path 246" class="cls-1" d="M100.388,99.946H97.4V66.2h11.073c2.988,0,5.449.176,7.909,1.758,2.285,1.406,3.515,3.867,3.515,7.03,0,3.691-2.636,6.327-6.5,7.206v.176c4.394.7,5.273,3.691,5.624,7.558.527,5.449.352,8.085,1.758,10.018h-3.515a23.626,23.626,0,0,1-1.23-7.03c-.7-7.733-1.23-9.139-7.382-9.139h-8.436v16.17Zm6.5-18.806c4.394,0,9.667-.351,9.667-5.976,0-6.5-6.152-5.976-9.315-5.976h-6.855V81.315h6.5Z" transform="translate(260.302 7.132)"/>
    <path id="Path_247" data-name="Path 247" class="cls-1" d="M123.939,66.2c11.073,0,17.4,5.624,17.4,16.873s-6.327,16.873-17.4,16.873H114.8V66.2Zm.7,30.934c9.491,0,13.358-5.624,13.358-14.061,0-10.018-5.8-14.412-15.467-14.061h-4.745V97.134Z" transform="translate(273.484 7.132)"/>
    <path id="Path_248" data-name="Path 248" class="cls-1" d="M137.188,66.2V87.994c.176,6.152,3.691,9.842,9.315,9.842s9.139-3.691,9.315-9.842V66.2h2.988V88.17c-.176,7.206-4.218,12.655-12.3,12.655-8.261,0-12.3-5.273-12.3-12.655V66.2Z" transform="translate(288.181 7.132)"/>
    <path id="Path_249" data-name="Path 249" class="cls-1" d="M162.418,101.027A9.68,9.68,0,0,1,152.4,91.537h3.339c.176,5.273,3.867,6.679,8.436,6.679,3.867,0,8.085-2.285,8.085-6.5,0-3.339-2.461-4.921-5.273-5.976-5.449-1.758-13.885-3.515-13.885-10.9,0-5.976,5.449-9.139,10.721-9.139,4.394,0,10.194,1.582,11.073,8.085h-3.339c-.176-4.218-3.867-5.273-7.382-5.273s-7.909,1.758-7.909,5.976c0,9.667,19.158,5.273,19.158,16.873C175.6,98.918,169.273,101.027,162.418,101.027Z" transform="translate(301.969 6.753)"/>
    <path id="Path_250" data-name="Path 250" class="cls-1" d="M2,102.755a.964.964,0,0,0,1.055-.7,7.26,7.26,0,0,0,.7-1.582L7.976,90.1H8.5l4.218,10.018,1.055,2.109a1.063,1.063,0,0,0,1.055.527v.527H8.679v-.527c.7,0,1.055,0,1.23-.176.176,0,.352-.352.352-.527a1.329,1.329,0,0,0-.176-.7c0-.176-.176-.352-.176-.7l-.527-1.23H5.164a4.757,4.757,0,0,0-.527,1.406,3.092,3.092,0,0,0-.176,1.055.466.466,0,0,0,.527.527,6.215,6.215,0,0,0,1.055.176v.527H2Zm7.03-4.042L7.273,94.318H7.1L5.339,98.712Z" transform="translate(188.028 25.238)"/>
    <path id="Path_251" data-name="Path 251" class="cls-1" d="M17.376,102.679a1.681,1.681,0,0,0,1.23-.352,2.271,2.271,0,0,0,.352-1.406V92.485a2.271,2.271,0,0,0-.352-1.406,2.048,2.048,0,0,0-1.23-.352V90.2h6.152a7.269,7.269,0,0,1,3.691.7,2.775,2.775,0,0,1,1.23,2.636,2.969,2.969,0,0,1-.527,1.758A4.15,4.15,0,0,1,26.339,96.7a6.244,6.244,0,0,1-1.758.352H21.945v3.515a2.271,2.271,0,0,0,.352,1.406,2.048,2.048,0,0,0,1.23.352v.527H17.2v-.176Zm6.855-6.327a2.931,2.931,0,0,0,.879-2.461,6.555,6.555,0,0,0-.352-2.109,1.846,1.846,0,0,0-1.582-.879,1.317,1.317,0,0,0-.879.176.646.646,0,0,0-.176.527v5.1A5.048,5.048,0,0,0,24.23,96.352Z" transform="translate(199.544 25.314)"/>
    <path id="Path_252" data-name="Path 252" class="cls-1" d="M31.576,102.679a1.681,1.681,0,0,0,1.23-.352,2.271,2.271,0,0,0,.352-1.406V92.485a2.271,2.271,0,0,0-.352-1.406,2.048,2.048,0,0,0-1.23-.352V90.2h6.152a7.269,7.269,0,0,1,3.691.7,2.775,2.775,0,0,1,1.23,2.636,2.969,2.969,0,0,1-.527,1.758A4.15,4.15,0,0,1,40.539,96.7a6.244,6.244,0,0,1-1.758.352H36.145v3.515a2.271,2.271,0,0,0,.352,1.406,2.048,2.048,0,0,0,1.23.352v.527H31.4v-.176Zm6.855-6.327a2.931,2.931,0,0,0,.879-2.461,6.555,6.555,0,0,0-.352-2.109,1.846,1.846,0,0,0-1.582-.879,1.317,1.317,0,0,0-.879.176.646.646,0,0,0-.176.527v5.1A5.048,5.048,0,0,0,38.43,96.352Z" transform="translate(210.301 25.314)"/>
    <path id="Path_253" data-name="Path 253" class="cls-1" d="M45.676,102.527c.527,0,.879,0,1.055-.176a1.063,1.063,0,0,0,.527-1.055V92.158A1.063,1.063,0,0,0,46.73,91.1c-.176-.176-.527-.176-1.055-.176V90.4h6.679v.527a3.51,3.51,0,0,0-1.582.352,2.271,2.271,0,0,0-.352,1.406v8.964a1.342,1.342,0,0,0,.352.879c.176.176.7.176,1.23.176a4.791,4.791,0,0,0,2.812-.7,5.84,5.84,0,0,0,1.933-2.988h.527l-.7,4.218H45.5v-.7Z" transform="translate(220.983 25.465)"/>
    <path id="Path_254" data-name="Path 254" class="cls-1" d="M60.4,102.527a2.606,2.606,0,0,0,1.23-.176,1.063,1.063,0,0,0,.527-1.055V92.158A1.063,1.063,0,0,0,61.63,91.1c-.176-.176-.7-.176-1.23-.176V90.4h6.679v.527a9.91,9.91,0,0,0-1.23.176,1.063,1.063,0,0,0-.527,1.055V101.3a1.063,1.063,0,0,0,.527,1.055,2.723,2.723,0,0,0,1.406.352v.527H60.576v-.7Z" transform="translate(232.271 25.465)"/>
    <path id="Path_255" data-name="Path 255" class="cls-1" d="M81.439,90.627a7.764,7.764,0,0,0,1.406.527c.176,0,.352-.176.527-.352s.176-.352.352-.527h.352V94.67h-.527a12.966,12.966,0,0,0-1.406-2.285A3.928,3.928,0,0,0,79.155,90.8a2.726,2.726,0,0,0-2.636,1.582,10.247,10.247,0,0,0-.879,4.394,8.859,8.859,0,0,0,.527,3.339,3.376,3.376,0,0,0,3.339,2.461,4.317,4.317,0,0,0,2.636-.879,12.822,12.822,0,0,0,1.758-1.582l.527.527a8.26,8.26,0,0,1-1.933,1.758,5.787,5.787,0,0,1-3.339,1.055,7.034,7.034,0,0,1-4.745-1.582A6.132,6.132,0,0,1,72.3,96.955a7.334,7.334,0,0,1,1.933-5.1A6.224,6.224,0,0,1,78.8,90.1,6.421,6.421,0,0,1,81.439,90.627Z" transform="translate(241.287 25.238)"/>
    <path id="Path_256" data-name="Path 256" class="cls-1" d="M87.5,102.755a.964.964,0,0,0,1.055-.7,7.26,7.26,0,0,0,.7-1.582L93.476,90.1H94l4.218,10.018,1.055,2.109a1.063,1.063,0,0,0,1.055.527v.527H94.179v-.527c.7,0,1.055,0,1.23-.176.176,0,.352-.352.352-.527a1.329,1.329,0,0,0-.176-.7c0-.176-.176-.352-.176-.7l-.527-1.23H90.664a4.757,4.757,0,0,0-.527,1.406,3.092,3.092,0,0,0-.176,1.055.466.466,0,0,0,.527.527,6.216,6.216,0,0,0,1.055.176v.527H87.676v-.352Zm7.206-4.042-1.758-4.394h-.176l-1.758,4.394Z" transform="translate(252.802 25.238)"/>
    <path id="Path_257" data-name="Path 257" class="cls-1" d="M102.1,90.3h11.424v3.867H113a3.492,3.492,0,0,0-1.582-2.812A3.806,3.806,0,0,0,109.306,91v10.018a2.271,2.271,0,0,0,.352,1.406,2.53,2.53,0,0,0,1.582.352v.527h-6.679v-.527a1.409,1.409,0,0,0,1.758-1.758V91a6.555,6.555,0,0,0-2.109.352,3.493,3.493,0,0,0-1.582,2.812H102.1Z" transform="translate(263.863 25.39)"/>
    <path id="Path_258" data-name="Path 258" class="cls-1" d="M116.8,102.527a2.606,2.606,0,0,0,1.23-.176,1.063,1.063,0,0,0,.527-1.055V92.158a1.063,1.063,0,0,0-.527-1.055c-.176-.176-.7-.176-1.23-.176V90.4h6.679v.527a9.91,9.91,0,0,0-1.23.176,1.063,1.063,0,0,0-.527,1.055V101.3a1.063,1.063,0,0,0,.527,1.055,2.723,2.723,0,0,0,1.406.352v.527h-6.679v-.7Z" transform="translate(274.999 25.465)"/>
    <path id="Path_259" data-name="Path 259" class="cls-1" d="M140.224,91.969a6.614,6.614,0,0,1,1.933,4.921,6.9,6.9,0,0,1-1.933,4.921,6.49,6.49,0,0,1-4.745,1.933,6.132,6.132,0,0,1-4.921-2.109,6.224,6.224,0,0,1-1.758-4.57,6.9,6.9,0,0,1,1.933-4.921,6.614,6.614,0,0,1,4.921-1.933A5.821,5.821,0,0,1,140.224,91.969Zm-1.933,8.436a10.308,10.308,0,0,0,.352-3.515,10.529,10.529,0,0,0-.879-4.57,2.651,2.651,0,0,0-2.461-1.582c-1.406,0-2.461.879-2.988,2.636a10.307,10.307,0,0,0-.352,3.515,18.132,18.132,0,0,0,.352,3.515,2.952,2.952,0,0,0,2.988,2.461C136.885,102.866,137.764,101.987,138.291,100.406Z" transform="translate(284.09 25.302)"/>
    <path id="Path_260" data-name="Path 260" class="cls-1" d="M144.5,102.679a2.271,2.271,0,0,0,1.406-.352,1.884,1.884,0,0,0,.352-1.055V92.309a10.518,10.518,0,0,0-1.055-1.23.646.646,0,0,0-.527-.176v-.527h4.042l6.5,7.909h.176V92.661a2.723,2.723,0,0,0-.352-1.406c-.176-.352-.7-.527-1.406-.527V90.2h4.042v.527c-.527.176-1.055.176-1.23.352a1.486,1.486,0,0,0-.351,1.055v11.249h-.527l-8.436-10.018h-.176v7.382c0,.527,0,1.055.176,1.23.176.352.7.527,1.582.7v.527H144.5Z" transform="translate(295.984 25.314)"/>
    <path id="Path_261" data-name="Path 261" class="cls-1" d="M160.1,98.788h.527a6.624,6.624,0,0,0,1.406,3.164,2.91,2.91,0,0,0,2.285.879,1.851,1.851,0,0,0,1.758-.7,2.337,2.337,0,0,0,.527-1.406,2,2,0,0,0-.527-1.406,5.364,5.364,0,0,0-1.582-.879l-1.23-.527a5.881,5.881,0,0,1-2.461-1.758,3.241,3.241,0,0,1-.7-2.285,4.221,4.221,0,0,1,1.055-2.636A3.409,3.409,0,0,1,164.143,90a6.319,6.319,0,0,1,1.933.351,5.667,5.667,0,0,1,1.055.352c.176,0,.351,0,.351-.176s.176-.352.176-.527h.527v4.218h-.527a6.493,6.493,0,0,0-1.23-2.461,3.094,3.094,0,0,0-2.285-1.055,1.73,1.73,0,0,0-1.406.527,1.6,1.6,0,0,0-.527,1.23,2,2,0,0,0,.527,1.406,13.908,13.908,0,0,0,2.285,1.406l1.406.7a4.853,4.853,0,0,1,1.406,1.055,3.577,3.577,0,0,1,1.055,2.636,3.875,3.875,0,0,1-1.055,2.636,4.3,4.3,0,0,1-3.515,1.23,3.431,3.431,0,0,1-1.23-.176,4.471,4.471,0,0,1-1.23-.352l-.352-.176h-.352c-.176,0-.352,0-.352.176s-.176.352-.176.527H160.1V98.788Z" transform="translate(307.803 25.162)"/>
  </g>
</svg>
